<?xml version="1.0" encoding="utf-8"?>
<!-- Generator: Adobe Illustrator 27.5.0, SVG Export Plug-In . SVG Version: 6.00 Build 0)  -->
<svg version="1.1" xmlns="http://www.w3.org/2000/svg" xmlns:xlink="http://www.w3.org/1999/xlink" x="0px" y="0px"
	 viewBox="0 0 750 500" style="enable-background:new 0 0 750 500;" xml:space="preserve">
<g id="BACKGROUND">
	<rect x="2.522" style="fill:#FFFFFF;" width="744.956" height="500"/>
</g>
<g id="OBJECTS">
	<g>
		<path d="M722.798,247.976l-19.796-9.9l-8.843-9.321l0.717-7.648l0.239-10.516l32.57,23.58l-3.19-5.694l-13.36-13.616
			l-11.681-12.75l-13.846-7.301l-3.511,7.093l-7.735,4.202l-11.775-6.173l-16.11-11.034l-11.476-9.048l-10.081,11.394l-6.882,10.787
			l-8.287-3.125l-13.044-14.451l-16.281-18.048l-10.986-7.965l-8.901-8.893l-30.81,21.918l-7.636,9.27l-17.256,12.898
			l-10.373-10.289l-20.55-12.32l-13.05-1.011l-17.892-11.83l-11.145-4.801l-6.962,11.9l-8.322,7.394l-16.012,22.336l-37.419,23.199
			l-8.641-1.691l-11.271-4.311l-12.94-8.458l-10.487,10.801l-5.057,7.927l-7.598-3.12l-14.822-15.608l-12.265-6.838l-9.52-12.635
			l-15.118-11.42l-9.557,12.975l-18.486,15.644L199,221.238l-9.586-9.07l-14.743-19.864l-15.362-18.236l-13.452-20.201
			l-10.244,8.108l-14.021,13.099l-8.577-1.871l-11.742-4.978l-12.05,9.327l-11.593,10.068l-16.075,30.246l-24.599,24.9
			l-12.292,17.53l17.54-12.456l26.47-24.581l22.133-33.465l12.763-7.53l1.689,4.256l-2.715,5.393l7.039-0.805l-0.761,6.44
			l-8.975,9.503l6.676-2.119l9.013-6.71l-0.668-7.416l13.358-9.963l15.126-15.027l-1.335,8.122l-3.338,5.754l-0.109,6.523
			l6.953-7.276l1.558,5.399l-0.5,10.706l-8.679,9.535l-8.346,11.635l9.013-7.751l5.675-2.825l-0.668,8.828l-8.012,10.241
			l-2.632,8.353l-2.696,5.877l15.343-15.29l11.016-7.434l7.941,8.48l5.431-2.545l26.464,25.07l-20.579,17.63l-7.739,11.7
			l-8.885,5.442l-41.112,22.826l-11.933,6.625l-8.162,15.329l12.634-13.506l16.842-3.646l18.663-4.04l6.693-5.661l17.017-14.392
			l12.483-15.799l11.407-5.205l-5.944,12.832l23.351,1.735l6.667,6.069l6.22,5.662l19.248-0.117l-14.874-4.554l-2.717-7.414
			l-0.295-0.374l-12.126-15.393l3.339-15.09l6.574,4.441l8.856,5.983l-9.067-16.395l8.862-13.011l13.494,7.48l12.656,17.759
			l4.12,14.734l13.567-0.302l19.93,6.786l-20.557-14.067l-7.577-12.198l-10.119-14.795l-17.837-10.472l11.31-7.96l21.152,13.437
			l-21.078-20.048l-4.687-4.04l10.716-9.644l9.322,9.431l-5.995-12.114l-2.36-9.538l16.235,18.486l8.114,9.595l12.627,10.346
			l-6.169,0.29l3.147,2.647l7.261,3.144l9.915,6.041l-11.438,2.351l11.343,6.148l13.188,5.727l6.896,8.174l2.81,6.019l-16.745-9.683
			l5.663,8.161l2.814,5.648l6.321,19.979l35.262,10.76l16.003,3.671l-32.841-19.826l-8.697-16.167l-0.724-8.816l6.956,2.889
			l11.01,7.845l-10.145-11.712l-10.58-9.62l-3.201-7.784l5.738,1.467l-5.663-8.161l0.88-5.173l12.209,10.943l-8.099-10.901
			l-4.046-5.782l-1.553-8.12l20.345,18.528l1.074,0.533l21.409,10.617l-0.905,7.391l11.023,6.806l8.196,2.196l14.695,11.762
			l8.934,7.151l13.133,1.894l-12.358-7.348l-0.301-0.179l-15.899-11.788l-12.651-8.232l5.386-3.822l-0.32-8.107l33.462,21.831
			l10.93,13.244l11.339,13.74l5.472,8.443l12.711,8.741l14.878,9.282l-10.209-12.625l-12.65-10.83l-6.725-11.454l-1.12-1.907
			l-1.664-2.148l-2.92-3.77l-10.15-13.104l-1.963-1.408l-6.707-4.811l-9.254-8.412l-16.353-14.351l-9.183-9.147l12.91-10.975
			l7.772-0.22l7.35-7.043l10.196,6.174l14.2,12.699l-2.495-4.881l-2.436-6.938l-7.415-8.506l-0.618-7.332l5.252,2.346l8.342,6.437
			l-7.724-9.664l-8.163-3.758l1.808-5.434l3.916,0.858l-3.869-5.145l0.254-4.578l5.437,2.806l-0.101-5.418l-3.09-4.779l-1.236-6.746
			l14,12.481l7.873,6.437l3.872,7.997l8.342,5.573l8.911,3.618l9.122,7.323l8.814,7.076l-5.304-6.219l-1.183-1.57l-7.202-9.557
			l-11.927-6.423l-4.064-5.731l6.515,0.669l-2.802-6.395l23.983,26.059l3.648,3.964l19.566,18.789l2.113,3.254l8.363,12.879
			l24.3,29.927l-11.511-21.528l-5.685-10.319l-5.736-11.666l-5.347-4.297l-2.837-10.354l5.248-6.493l11.341,1.282l6.372,2.44
			l5.058,6.158l1.504,8.302l2.187-4.312l9.969,9.039l10.963,20.443l-7.262-22.993l-4.092-6.184l-5.477-5.783l-5.234-7.713
			l-5.848-4.197l1.376-6.878l6.972,2.855l-8.348-11.34l4.388,0.272l0.481-4.519l6.253-11.448l15.387,10.22l-5.995-12.114
			l-2.36-9.537l16.235,18.486l8.114,9.596l12.627,10.346l-6.169,0.29l0.785,3.283l7.759,4.555l11.778,3.995l-11.438,2.351
			l11.343,6.148l13.188,5.727l6.896,8.174l2.81,6.019l-16.745-9.683l9.185,10.782l-1.972,5.906l21.04,10.531l7.89,8.219
			l27.426,12.21l-29.293-25.104l-9.75-10.316l-0.724-8.816l6.956,2.889l11.01,7.844l-10.145-11.712l-10.58-9.62l-3.201-7.784
			l5.738,1.467l-5.664-8.161l0.88-5.173l12.209,10.943l-8.099-10.901l-4.046-5.782l-1.553-8.12l20.345,18.528l22.483,11.15
			l-0.905,7.391l9.664,10.71l4.541,0.239l28.643,16.967l13.133,1.894L722.798,247.976z M161.754,202.735l-3.243-4.053l-4.054-19.863
			l5.81,8.107l8.107,9.999l-7.837-5.81l2.027,7.972l8.513,13.107L161.754,202.735z M385.717,227.746l1.981,2.908l-2.548-2.425
			l-7.914-7.534l-6.28,0.956l10.513-4.505l4.856-4.202l2.244-1.942l-1.597,2.586l-5.183,8.393L385.717,227.746z M538.049,175.717
			l-2.22,9.856l-1.036,4.601l-4.64-1.043l-3.542-0.797l-11.692,6.308l14.53-9.837l3.474-8.106l14.68-12.969L538.049,175.717z
			 M626.166,208.788l0.231,4.162l-6.937-6.243l3.237-5.549l3.931-5.78l-2.543,8.555L626.166,208.788z M683.303,212.294l-4.104-2.803
			l3.775-1.168l1.97-4.205l0.656,12.693L683.303,212.294z"/>
		<polygon points="594.319,281.61 577.103,265.807 588.501,285.555 592.317,290.733 587.704,294.788 584.005,298.04 599.82,295.491 
			617.447,302.227 605.269,294.432 		"/>
	</g>
	<g>
		<path d="M246.754,146.692c-1.561,0.777-4.176,1.461-6.764,1.752c-2.588,0.292-4.371,2.018-5.492,1.778
			c-0.016-0.004-0.031-0.008-0.047-0.012c-0.138-0.031-0.219-0.07-0.276-0.11c-0.005,0.002-0.007-0.004-0.01-0.006
			c-0.165-0.111-0.168-0.237-0.55-0.315c-0.546-0.11-0.8,0.009-1.2,0.274c-0.029,0.019-0.055,0.036-0.081,0.051
			c-0.007,0.004-0.013,0.007-0.019,0.011c-0.021,0.012-0.041,0.023-0.06,0.032c-0.005,0.002-0.009,0.005-0.014,0.007
			c-0.151,0.071-0.276,0.069-0.537,0.013c-0.043-0.009-0.092-0.02-0.144-0.032c-0.183-0.043-0.42-0.103-0.749-0.178
			c-1.179-0.271-4.092-0.743-5.825-0.872c-1.735-0.126-2.537-1.298-2.944-1.297c-0.407,0.001-0.095,0.722,0.601,1.134
			c0.261,0.155,0.578,0.353,0.98,0.548c0.657,0.32,1.676,1.577,2.885,1.679c1.935,0.164,5.137,1.032,5.565,1.229
			c0.427,0.191,0.196-0.013,0.27,0.323c0.078,0.338,0.086,0.453-0.67,0.667c-0.758,0.217-0.793,0.273-0.324,0.598
			c0.471,0.33,0.077,0.634,0.62,0.928c0.525,0.284,0.855,0.806,1.437,1.039c-0.007,0.084,0.207,0.188,0.22,0.087
			c0.353,0.134,1.478,0.531,1.59,0.556c0.591,0.134,0.824-0.363,1.519-0.357c0.697,0.01,1.086-0.848,1.344-1.186
			c0.255-0.34,1.01-0.372,0.546-0.624c-0.465-0.251-2.172-1.065-2.574-1.212c-0.401-0.142-0.316-0.502,0.133-0.516
			c0.449-0.013,2.835-0.135,5.332-1.214c1.212-0.524,2.347-0.965,3.354-1.331c1.072-0.396,1.352-1.337,2.083-1.569
			c1.421-0.446,0.711-0.424,1.515-1.093c0.804-0.67,0.467-1.002,0.467-1.002s1.043-0.907,1.072-1.368
			C250.039,144.639,248.318,145.917,246.754,146.692z"/>
		<path d="M359.9,54.477c-0.591-0.001-1.755,1.701-4.275,1.883c-2.517,0.188-6.747,0.873-8.458,1.267
			c-0.478,0.109-0.823,0.196-1.089,0.259c-0.076,0.017-0.147,0.033-0.21,0.046c-0.379,0.081-0.561,0.084-0.78-0.019
			c-0.007-0.003-0.013-0.006-0.02-0.01c-0.028-0.014-0.057-0.029-0.087-0.047c-0.009-0.005-0.018-0.01-0.028-0.016
			c-0.037-0.022-0.076-0.046-0.118-0.074c-0.581-0.385-0.95-0.558-1.742-0.398c-0.555,0.114-0.559,0.296-0.798,0.458
			c-0.005,0.003-0.007,0.01-0.015,0.008c-0.084,0.058-0.201,0.115-0.401,0.159c-0.022,0.006-0.045,0.012-0.068,0.017
			c-1.628,0.348-4.216-2.159-7.975-2.582c-3.759-0.423-7.556-1.416-9.822-2.545c-2.271-1.126-4.771-2.982-4.726-2.306
			c0.042,0.67,1.557,1.987,1.557,1.987s-0.489,0.483,0.679,1.455c1.168,0.972,4.885,3.914,6.442,4.49
			c1.462,0.531,2.632,0.514,4.391,1.275c3.627,1.567,6.353,1.779,7.005,1.798c0.652,0.019,0.775,0.543,0.194,0.749
			c-0.584,0.213-3.064,1.395-3.738,1.76c-0.675,0.365,0.422,0.413,0.792,0.906c0.374,0.49,0.94,1.737,1.952,1.722
			c1.01-0.007,1.349,0.714,2.206,0.519c0.162-0.037,1.797-0.614,2.309-0.808c0.019,0.147,0.331-0.005,0.32-0.127
			c0.845-0.338,1.325-1.096,2.087-1.508c0.789-0.427,0.217-0.868,0.901-1.347c0.682-0.472,0.631-0.554-0.47-0.869
			c-1.098-0.31-1.027-0.726-0.408-1.004c0.622-0.285,5.47-1.998,8.281-2.236c1.755-0.148,2.862-1.955,3.817-2.42
			c0.584-0.284,1.044-0.572,1.424-0.796C360.038,55.525,360.491,54.478,359.9,54.477z"/>
		<path d="M219.307,73.938c0.149,0.007,0.74-0.201,1.59-0.495c0.413-0.143,0.798-0.261,1.139-0.357
			c0.363-0.104,0.678-0.182,0.925-0.241c0.48-0.112,0.245-0.122,0.527-0.323c0.282-0.201,0.179-0.319,0.179-0.319
			s0.367-0.274,0.387-0.425c0.022-0.153-0.578,0.227-1.113,0.444c-0.534,0.218-1.414,0.379-2.275,0.412
			c-0.76,0.029-1.34,0.441-1.716,0.464c-0.003-0.1-0.09-0.125-0.227-0.217c-0.144-0.098-0.196-0.192-0.352-0.104
			c-0.074,0.042-0.119,0.123-0.149,0.218c-0.372-0.045-0.821-0.692-1.61-0.96c-0.816-0.278-1.612-0.685-2.061-1.046
			c-0.45-0.362-0.916-0.897-0.939-0.744c-0.023,0.151,0.249,0.518,0.249,0.518s-0.132,0.084,0.08,0.357s-0.016,0.216,0.412,0.461
			c0.22,0.127,0.499,0.292,0.817,0.496c0.299,0.189,0.635,0.413,0.989,0.668c0.73,0.526,1.238,0.894,1.382,0.93
			c0.144,0.036,0.146,0.159,0.006,0.176c-0.14,0.019-0.75,0.161-0.918,0.209c-0.168,0.048,0.074,0.112,0.132,0.24
			c0.059,0.127,0.124,0.432,0.35,0.479c0.225,0.048,0.265,0.225,0.466,0.223c0.021,0,0.15-0.015,0.282-0.032
			c0.039,0.084,0.107,0.152,0.216,0.196c0.153-0.25,0.193-0.045,0.377-0.062c0.025-0.002,0.067-0.02,0.112-0.044
			c0.141,0.062,0.301,0.132,0.325,0.139c0.191,0.059,0.281-0.099,0.51-0.081c0.23,0.021,0.379-0.253,0.473-0.358
			c0.092-0.106,0.343-0.098,0.195-0.192s-0.69-0.405-0.82-0.463C219.122,74.048,219.158,73.931,219.307,73.938z"/>
		<path d="M523.833,80.756c-0.805-0.053-2.01-0.39-3.113-0.877c-0.973-0.43-1.955-0.267-2.442-0.468
			c0.057-0.128-0.037-0.212-0.152-0.412c-0.121-0.211-0.129-0.361-0.379-0.346c-0.119,0.007-0.225,0.081-0.321,0.183
			c-0.44-0.285-0.609-1.373-1.435-2.194c-0.855-0.85-1.607-1.849-1.95-2.579c-0.345-0.731-0.602-1.689-0.725-1.511
			c-0.122,0.176-0.004,0.805-0.004,0.805s-0.218,0.024-0.118,0.498c0.099,0.474-0.152,0.262,0.235,0.832
			c0.199,0.294,0.448,0.672,0.723,1.124c0.26,0.422,0.545,0.908,0.834,1.447c0.596,1.109,1.008,1.883,1.167,2.017
			c0.159,0.134,0.086,0.289-0.1,0.225c-0.188-0.062-1.041-0.258-1.282-0.3s0.024,0.187,0.019,0.383
			c-0.003,0.197-0.109,0.62,0.147,0.817c0.254,0.198,0.196,0.445,0.448,0.566c0.026,0.013,0.198,0.073,0.374,0.133
			c-0.003,0.13,0.041,0.257,0.152,0.378c0.345-0.221,0.27,0.062,0.512,0.153c0.033,0.012,0.097,0.016,0.168,0.014
			c0.139,0.165,0.298,0.35,0.323,0.374c0.205,0.191,0.414,0.047,0.691,0.211c0.276,0.167,0.632-0.086,0.814-0.16
			c0.181-0.076,0.491,0.087,0.364-0.122c-0.127-0.209-0.62-0.932-0.747-1.085c-0.127-0.15-0.009-0.275,0.174-0.175
			c0.183,0.099,1.053,0.201,2.303,0.352c0.607,0.073,1.164,0.161,1.651,0.25c0.521,0.092,0.964,0.186,1.31,0.264
			c0.672,0.153,0.383-0.004,0.861-0.084c0.478-0.08,0.42-0.292,0.42-0.292s0.629-0.119,0.748-0.297
			C525.625,80.701,524.639,80.811,523.833,80.756z"/>
		<path d="M590.585,110.057c-0.357-0.067-1.251,0.828-2.792,0.655c-1.54-0.171-4.17-0.234-5.247-0.189
			c-0.301,0.011-0.519,0.025-0.686,0.033c-0.047,0.002-0.092,0.004-0.132,0.004c-0.238,0.006-0.348-0.013-0.469-0.099
			c-0.004-0.003-0.007-0.005-0.011-0.008c-0.015-0.012-0.031-0.024-0.047-0.038c-0.005-0.004-0.01-0.008-0.015-0.013
			c-0.02-0.018-0.041-0.037-0.063-0.058c-0.307-0.298-0.51-0.444-1.007-0.437c-0.348,0.006-0.37,0.116-0.533,0.186
			c-0.003,0.001-0.006,0.005-0.01,0.003c-0.057,0.026-0.134,0.047-0.26,0.051c-0.014,0.001-0.028,0.002-0.043,0.003
			c-1.021,0.027-2.301-1.778-4.521-2.458c-2.22-0.679-4.4-1.707-5.64-2.643c-1.244-0.935-2.543-2.337-2.592-1.925
			c-0.05,0.409,0.715,1.375,0.715,1.375s-0.35,0.236,0.245,0.955c0.595,0.718-0.024,0.583,1.149,1.206
			c0.602,0.323,1.048,1.467,1.923,1.99c0.822,0.485,1.745,1.058,2.721,1.715c2.012,1.354,3.728,1.578,4.119,1.663
			c0.391,0.085,0.406,0.415,0.032,0.474c-0.376,0.063-2.006,0.496-2.454,0.641c-0.448,0.144,0.208,0.297,0.376,0.636
			c0.171,0.338,0.372,1.154,0.984,1.259c0.61,0.109,0.734,0.583,1.273,0.562c0.102-0.004,1.154-0.168,1.484-0.227
			c-0.005,0.091,0.2,0.034,0.207-0.04c0.548-0.108,0.923-0.512,1.43-0.675c0.524-0.169,0.229-0.499,0.695-0.711
			c0.465-0.208,0.443-0.263-0.186-0.577c-0.628-0.311-0.602-0.41-0.478-0.694c0.12-0.282,3.672,0.61,6.79-0.382
			c1.504-0.479,2.076-1.248,2.33-1.341C590.55,110.705,590.941,110.124,590.585,110.057z"/>
		<path d="M312.75,103.132c-2.292,1.73-6.318,3.628-10.42,4.883c-4.102,1.255-6.466,4.589-8.353,4.54
			c-0.026-0.002-0.052-0.004-0.079-0.005c-0.233-0.008-0.375-0.047-0.481-0.094c-0.008,0.004-0.012-0.004-0.018-0.006
			c-0.301-0.13-0.343-0.332-0.985-0.344c-0.917-0.013-1.293,0.256-1.86,0.807c-0.041,0.039-0.079,0.074-0.116,0.107
			c-0.009,0.008-0.018,0.016-0.028,0.024c-0.03,0.026-0.059,0.049-0.087,0.071c-0.007,0.005-0.014,0.01-0.021,0.015
			c-0.223,0.16-0.426,0.196-0.866,0.184c-0.073-0.001-0.156-0.004-0.243-0.008c-0.309-0.015-0.712-0.04-1.267-0.062
			c-1.991-0.083-6.849,0.035-9.694,0.35c-2.847,0.321-4.499-1.334-5.158-1.209c-0.659,0.124,0.065,1.198,1.317,1.654
			c0.469,0.171,1.043,0.396,1.753,0.591c1.161,0.32,3.827,1.792,5.776,2.233c4.295,0.972,9.097-0.163,9.319,0.359
			c0.228,0.524,0.276,0.707-0.883,1.282c-1.162,0.581-1.202,0.683-0.343,1.066c0.862,0.392,0.316,1.003,1.285,1.314
			c0.936,0.301,1.629,1.047,2.641,1.247c0.013,0.138,0.393,0.242,0.383,0.074c0.612,0.11,2.554,0.413,2.742,0.42
			c0.996,0.038,1.224-0.836,2.352-1.038c1.131-0.194,1.502-1.702,1.818-2.326c0.309-0.627,1.523-0.909,0.694-1.175
			c-0.829-0.267-3.839-1.067-4.534-1.183c-0.692-0.108-0.664-0.718,0.06-0.875c0.723-0.157,2.288-0.898,6.424-2.621
			c2.265-0.944,3.719-2.643,5.238-3.539c1.615-0.966,2.615-1.999,3.728-2.596c2.166-1.152,1.822-2.064,2.922-3.391
			c1.099-1.327,0.453-1.764,0.453-1.764s1.415-1.784,1.322-2.54C317.448,98.815,315.048,101.404,312.75,103.132z"/>
		<path d="M342.059,161.351c-1.552,0.328-4.043,0.329-6.438-0.011c-2.396-0.34-4.319,0.777-5.291,0.306
			c-0.013-0.007-0.027-0.014-0.04-0.021c-0.12-0.059-0.185-0.112-0.231-0.161c-0.005,0-0.006-0.005-0.008-0.007
			c-0.129-0.137-0.11-0.249-0.441-0.406c-0.474-0.224-0.726-0.177-1.136-0.035c-0.029,0.01-0.057,0.019-0.083,0.027
			c-0.007,0.002-0.013,0.004-0.019,0.005c-0.021,0.006-0.041,0.011-0.06,0.015c-0.005,0.001-0.009,0.002-0.014,0.003
			c-0.149,0.028-0.263-0.003-0.489-0.113c-0.038-0.018-0.08-0.039-0.125-0.061c-0.158-0.081-0.362-0.189-0.647-0.331
			c-1.019-0.513-3.571-1.605-5.117-2.12c-1.548-0.513-2.064-1.737-2.432-1.83c-0.368-0.094-0.215,0.618,0.341,1.144
			c0.209,0.197,0.467,1.231,0.796,1.497c0.538,0.436,0.93,1.33,1.909,1.909c1.534,0.908,2.307,0.954,2.66,1.228
			c0.352,0.268,2.732,0.643,2.739,0.958c0.01,0.318-0.003,0.421-0.727,0.436c-0.725,0.017-0.767,0.059-0.4,0.455
			c0.367,0.401-0.044,0.579,0.395,0.966c0.424,0.373,0.63,0.913,1.115,1.253c-0.022,0.073,0.154,0.215,0.184,0.128
			c0.295,0.2,1.243,0.813,1.34,0.861c0.51,0.255,0.811-0.131,1.44,0.035c0.629,0.17,1.136-0.5,1.43-0.74
			c0.291-0.242,0.981-0.096,0.606-0.427c-0.376-0.331-1.775-1.446-2.113-1.67c-0.337-0.218-0.196-0.518,0.213-0.426
			c0.409,0.092,2.116-0.178,4.571-0.556c1.191-0.184,2.299-0.313,3.276-0.404c1.041-0.103,1.938-0.159,2.641-0.196
			c1.367-0.067,0.72-0.211,1.568-0.619c0.848-0.407,0.603-0.78,0.603-0.78s1.107-0.563,1.216-0.965
			C345.402,160.291,343.614,161.026,342.059,161.351z"/>
		<path d="M173.624,95.81c-0.693,0.523-1.912,1.098-3.153,1.478c-1.095,0.335-1.781,1.159-2.319,1.338
			c-0.044-0.144-0.18-0.146-0.414-0.229c-0.247-0.087-0.36-0.203-0.552-0.015c-0.092,0.09-0.126,0.224-0.133,0.375
			c-0.558,0.077-1.463-0.69-2.714-0.776c-1.295-0.09-2.611-0.374-3.405-0.728c-0.795-0.352-1.679-0.952-1.654-0.721
			c0.024,0.229,0.563,0.658,0.563,0.658s-0.161,0.173,0.254,0.489c0.415,0.316,0.061,0.32,0.778,0.512
			c0.369,0.1,0.838,0.232,1.38,0.406c0.509,0.16,1.084,0.356,1.698,0.591c1.266,0.484,2.147,0.824,2.37,0.821
			c0.224-0.003,0.274,0.175,0.077,0.254c-0.197,0.082-1.029,0.523-1.255,0.658c-0.226,0.135,0.151,0.136,0.285,0.299
			c0.136,0.163,0.348,0.582,0.695,0.562c0.346-0.017,0.473,0.225,0.764,0.145c0.03-0.008,0.213-0.08,0.399-0.155
			c0.089,0.107,0.215,0.18,0.39,0.201c0.125-0.423,0.264-0.14,0.525-0.236c0.035-0.013,0.09-0.056,0.147-0.107
			c0.229,0.036,0.49,0.075,0.527,0.077c0.301,0.012,0.37-0.253,0.711-0.314c0.342-0.059,0.455-0.515,0.55-0.704
			c0.094-0.189,0.461-0.275,0.21-0.355c-0.251-0.08-1.162-0.323-1.372-0.358c-0.209-0.033-0.201-0.217,0.018-0.265
			c0.219-0.048,1-0.578,2.124-1.335c0.545-0.368,1.061-0.688,1.521-0.959c0.489-0.292,0.916-0.527,1.253-0.707
			c0.656-0.349,0.31-0.273,0.642-0.674c0.333-0.402,0.137-0.534,0.137-0.534s0.428-0.54,0.4-0.769
			C175.045,94.504,174.319,95.288,173.624,95.81z"/>
		<path d="M493.756,106.087c-0.385,0.29-1.061,0.609-1.75,0.82c-0.608,0.186-0.988,0.643-1.287,0.743
			c-0.024-0.08-0.1-0.081-0.23-0.127c-0.137-0.048-0.2-0.113-0.306-0.008c-0.051,0.05-0.07,0.125-0.074,0.208
			c-0.31,0.043-0.812-0.383-1.506-0.431c-0.719-0.05-1.449-0.208-1.89-0.404c-0.441-0.196-0.932-0.528-0.918-0.4
			c0.013,0.127,0.313,0.366,0.313,0.366s-0.089,0.096,0.141,0.271c0.23,0.175,0.034,0.178,0.432,0.284
			c0.205,0.055,0.465,0.129,0.766,0.226c0.283,0.089,0.602,0.197,0.943,0.328c0.703,0.269,1.192,0.457,1.316,0.456
			c0.124-0.002,0.152,0.097,0.043,0.141c-0.109,0.045-0.572,0.291-0.697,0.366c-0.126,0.075,0.084,0.075,0.158,0.166
			c0.075,0.09,0.193,0.323,0.386,0.312c0.192-0.01,0.263,0.125,0.424,0.081c0.017-0.005,0.118-0.044,0.221-0.086
			c0.049,0.06,0.119,0.1,0.217,0.112c0.07-0.235,0.146-0.078,0.292-0.131c0.02-0.007,0.05-0.031,0.081-0.06
			c0.127,0.02,0.272,0.042,0.292,0.043c0.167,0.006,0.206-0.141,0.395-0.174c0.19-0.033,0.252-0.286,0.305-0.391
			c0.052-0.105,0.256-0.153,0.117-0.198c-0.139-0.045-0.645-0.179-0.762-0.199c-0.116-0.018-0.111-0.121,0.01-0.147
			c0.122-0.027,0.555-0.321,1.179-0.741c0.303-0.204,0.589-0.382,0.844-0.532c0.271-0.162,0.509-0.293,0.696-0.393
			c0.364-0.193,0.172-0.151,0.356-0.374c0.185-0.223,0.076-0.296,0.076-0.296s0.238-0.3,0.222-0.427
			C494.545,105.362,494.142,105.796,493.756,106.087z"/>
		<path d="M421.486,125.56c-1.643,0.605-4.327,1.002-6.941,1.011c-2.307,0.008-4.109,1.197-5.252,1.229
			c0-0.303-0.261-0.387-0.665-0.682c-0.426-0.311-0.576-0.602-1.055-0.35c-0.229,0.12-0.373,0.36-0.476,0.646
			c-1.122-0.176-2.419-2.183-4.781-3.079c-2.445-0.927-4.818-2.243-6.142-3.388c-1.328-1.143-2.684-2.814-2.77-2.355
			c-0.087,0.456,0.702,1.598,0.702,1.598s-0.41,0.24,0.205,1.091c0.616,0.851-0.07,0.653,1.202,1.441
			c0.653,0.407,1.482,0.936,2.425,1.588c0.888,0.606,1.883,1.317,2.931,2.129c2.16,1.671,3.66,2.84,4.094,2.964
			c0.433,0.125,0.426,0.496,0.001,0.534c-0.427,0.043-2.29,0.409-2.805,0.538c-0.515,0.129,0.212,0.349,0.375,0.743
			c0.167,0.392,0.332,1.324,1.012,1.487c0.678,0.168,0.781,0.71,1.389,0.726c0.063,0.002,0.457-0.03,0.859-0.066
			c0.109,0.259,0.308,0.473,0.635,0.616c0.489-0.742,0.59-0.115,1.15-0.149c0.076-0.005,0.205-0.055,0.345-0.121
			c0.421,0.204,0.9,0.431,0.971,0.455c0.575,0.198,0.862-0.272,1.555-0.191c0.694,0.087,1.177-0.728,1.471-1.037
			c0.291-0.311,1.049-0.262,0.612-0.563c-0.436-0.302-2.052-1.3-2.437-1.49c-0.385-0.185-0.26-0.536,0.189-0.5
			c0.45,0.036,2.264-0.531,4.874-1.336c1.266-0.391,2.448-0.708,3.492-0.963c1.113-0.279,2.074-0.482,2.829-0.634
			c1.467-0.29,0.755-0.346,1.631-0.926c0.875-0.58,0.576-0.949,0.576-0.949s1.14-0.792,1.219-1.249
			C424.988,123.869,423.131,124.957,421.486,125.56z"/>
		<path d="M519.664,132.666c-0.808,0.39-2.158,0.726-3.492,0.861c-1.177,0.118-2.038,0.814-2.619,0.887
			c-0.015-0.155-0.152-0.184-0.373-0.315c-0.233-0.138-0.323-0.279-0.556-0.127c-0.111,0.073-0.173,0.202-0.211,0.353
			c-0.581-0.034-1.343-0.994-2.593-1.334c-1.294-0.352-2.57-0.906-3.303-1.424c-0.734-0.518-1.509-1.303-1.53-1.064
			c-0.022,0.237,0.438,0.781,0.438,0.781s-0.198,0.143,0.159,0.547c0.356,0.404-0.003,0.337,0.685,0.676
			c0.354,0.176,0.802,0.404,1.316,0.69c0.483,0.265,1.026,0.579,1.602,0.941c1.185,0.746,2.008,1.268,2.236,1.31
			c0.227,0.042,0.242,0.232,0.027,0.273c-0.216,0.043-1.149,0.322-1.405,0.414c-0.256,0.091,0.125,0.168,0.228,0.36
			c0.104,0.192,0.235,0.66,0.59,0.709c0.354,0.052,0.434,0.323,0.745,0.302c0.032-0.002,0.232-0.038,0.435-0.076
			c0.069,0.127,0.181,0.226,0.355,0.283c0.213-0.403,0.295-0.088,0.58-0.133c0.039-0.006,0.102-0.038,0.17-0.079
			c0.225,0.083,0.481,0.175,0.518,0.184c0.303,0.073,0.426-0.182,0.784-0.175c0.359,0.01,0.565-0.43,0.699-0.602
			c0.133-0.173,0.522-0.186,0.284-0.318c-0.238-0.132-1.112-0.562-1.318-0.64c-0.205-0.075-0.159-0.26,0.072-0.264
			c0.231-0.004,1.129-0.383,2.421-0.923c0.627-0.262,1.214-0.483,1.735-0.665c0.554-0.198,1.035-0.349,1.412-0.464
			c0.734-0.221,0.369-0.214,0.787-0.554c0.418-0.34,0.247-0.513,0.247-0.513s0.543-0.46,0.56-0.698
			C521.367,131.629,520.473,132.276,519.664,132.666z"/>
		<path d="M431.267,78.369c-0.685,0.28-1.814,0.487-2.92,0.529c-0.975,0.037-1.72,0.565-2.202,0.596
			c-0.004-0.128-0.116-0.16-0.291-0.279c-0.185-0.125-0.252-0.246-0.451-0.133c-0.095,0.054-0.153,0.157-0.192,0.28
			c-0.477-0.058-1.054-0.887-2.066-1.232c-1.047-0.357-2.069-0.878-2.646-1.343c-0.578-0.464-1.176-1.151-1.205-0.955
			c-0.03,0.194,0.32,0.665,0.32,0.665s-0.17,0.107,0.102,0.458c0.273,0.351-0.02,0.277,0.529,0.592
			c0.282,0.163,0.64,0.374,1.048,0.636c0.384,0.243,0.815,0.53,1.27,0.858c0.938,0.675,1.588,1.147,1.773,1.194
			c0.185,0.046,0.187,0.204,0.008,0.226c-0.18,0.024-0.962,0.206-1.178,0.268c-0.216,0.062,0.095,0.144,0.169,0.308
			c0.076,0.164,0.16,0.555,0.449,0.614c0.289,0.061,0.34,0.289,0.598,0.287c0.027,0,0.193-0.019,0.362-0.04
			c0.05,0.108,0.137,0.196,0.277,0.251c0.196-0.321,0.248-0.057,0.484-0.08c0.032-0.003,0.086-0.026,0.144-0.056
			c0.181,0.08,0.387,0.169,0.417,0.178c0.246,0.075,0.361-0.128,0.655-0.104c0.295,0.026,0.487-0.325,0.607-0.46
			c0.118-0.136,0.44-0.126,0.251-0.247s-0.886-0.52-1.052-0.595c-0.165-0.073-0.118-0.223,0.073-0.214
			c0.191,0.009,0.95-0.257,2.041-0.635c0.53-0.184,1.025-0.335,1.462-0.458c0.466-0.134,0.87-0.234,1.187-0.309
			c0.616-0.144,0.315-0.157,0.676-0.415c0.362-0.258,0.23-0.41,0.23-0.41s0.47-0.351,0.497-0.546
			C432.723,77.603,431.954,78.09,431.267,78.369z"/>
	</g>
	<g>
		<path d="M742.818,406.103c-3.298,2.277-11.607,2.133-16.274,1.482c2.484-0.243,4.918-1.422,6.83-2.318
			c-2.125,0.666-4.941-1.311-7.503-3.523c0.443,0.108,0.887,0.229,1.332,0.369c-1.815-0.781-3.547-1.931-4.443-3.767
			c3.521,1.522,6.744,1.539,10.476,1.659c-1.039-0.162-2.44-1.572-3.616-2.336c4.062,1.505,6.971-3.877,6.971-3.877
			c-7.204,0.13-14.348-5.534-14.348-5.534c5.631,1.005,10.823,0.592,11.759-1.842c-1.363,1.568-4.085-2.239-6.158-1.37
			c1.192-0.732,2.141-1.879,2.6-3.2c-2.037,0.19-3.939,1.057-6.037,0.984c1.877-0.912,2.965-3.288,3.418-5.154
			c-2.671,0.326-5.393,1.273-8.098,1.14c1.359-0.158,2.546-1.214,3.315-2.354c-6.926,1.516-7.971-0.538-8.739-0.713
			c0.588-0.055,12.081,1.286,15.439-1.043c-2.387-1.292-7.045-1.301-9.336-2.825c3.819,1.25,8.676,0.757,12.022-0.639
			c-1.421-0.229-3.07-0.214-4.422-0.561c5.507-0.3,9.404-1.566,11.127-4.618c-2.796,1.931-9.843,1.809-13.8,1.257
			c2.106-0.205,4.17-1.206,5.792-1.965c-3.403,1.066-12.132,1.98-14.771-0.418c1.335,0.003,2.681-0.092,3.873-0.47
			c-1.188,0.009-2.313-0.121-3.38-0.339c0.301-0.273,0.601-0.562,0.901-0.887c-1.239,0.045-2.48,0.026-3.719,0.036
			c-0.024-0.01-0.049-0.019-0.074-0.029c0.706-0.1,1.313-0.468,1.899-0.881c1.266,0.124,2.555,0.203,3.863,0.311
			c-2.076-1.074-4.61-2.129-7.027-2.998c5.642,1.026,9.03,1.938,14.872,0.744c-2.837-0.46-5.338-0.93-7.513-2.094
			c3.316,0.074,5.739-1.25,7.695-2.595c-2.152,0.973-5.571,1.145-8.289,0.851c-0.783-0.085-1.463-0.232-2.101-0.407
			c0.526-0.196,1.013-0.488,1.422-0.903c-1.118,0.264-2.205,0.391-3.196,0.337c-0.828-0.288-1.674-0.577-2.654-0.802
			c-0.05-0.034-0.098-0.07-0.146-0.106c1.62,0.028,3.242,0.012,4.863,0.021c-2.141-0.234-4.474-0.708-6.087-1.578
			c-0.087-0.194-0.164-0.4-0.23-0.621c0.456-0.007,0.911-0.021,1.365-0.045c2.254,0.721,4.577,0.114,7.178,0.162
			c-0.889-0.325-1.656-1.006-2.435-1.392c2.265,0.12,4.438-0.757,6.666-0.925c-0.988-0.23-1.941-0.639-2.874-0.987
			c3.95-2.688,6.477-5.598,7.549-10.568c-2.209,2.229-4.722,2.505-7.852,3.113c1.233-0.729,2.122-2.454,2.25-3.772
			c-2.164,1.192-5.887,3.299-8.462,2.802c-1.815-0.351-3.502-2.421-4.719-3.75c1.047-0.041,2.11-0.031,3.164-0.01
			c-1.042-0.308-1.762-1.062-2.71-1.455c2.217,1.233,5.923-0.451,8.102-1.19c-0.534-0.385-1.167-1.174-1.609-1.566
			c1.808,0.02,4.536-0.361,5.311-2.318c-0.984,0.841-2.68,0.825-3.857,0.461c2.337-2.283,7.834-6.98,6.236-10.65
			c-3.399,1.876-6.439,3.806-10.494,3.473c1.964-0.809,2.465-3.411,3.879-4.921c-2.764,0.843-6.421,0.763-7.12-2.532
			c1.265,0.044,2.42-0.311,3.632-0.49c-1.108-0.553-2.247-1.219-3.122-2.094c4.175-0.407,8.342-4.124,8.978-8.436
			c-2.988,1.954-4.662,2.875-8.325,2.462c0.962-0.457,2.329-0.957,3.155-1.847c-1.367,0.243-2.798-0.506-4.033-0.932
			c1.952-0.323,3.536-1.578,5.236-2.374c-3.266,1.45-4.771,0.643-7.805-0.931c1.164,0.065,2.222-0.39,3.355-0.448
			c-1.051-0.184-2.022-0.637-3.084-0.706c1.574-0.081,3.086-0.861,4.497-1.434c-2.17,0.755-9.409-2.312-5.845-4.163
			c-0.461-0.594-0.852-1.26-1.474-1.704c0.925-0.32,1.931-0.235,2.894-0.288c-4.35-0.375-3.591-13.109-3.896-15.255
			c-0.185,0.355-0.344,0.873-0.477,1.483c0.002-0.954,0.003-1.483,0.003-1.483s-0.8,1.186-0.802,1.75
			c0.106,0.97,0.216,2.399-0.766,3.236c-0.767,0.654-2.127,0.803-3.009,1.117c0.906,0.045,2.022,0.027,2.841,0.185
			c-0.574,0.302-1.275,0.504-1.889,0.771c0.614,0.338,1.486,0.422,2.276,0.296c-2.134,0.986-2.716,3.336-6.632,3.556
			c0.529,0.14,2.492,0.67,3.306,0.101c-0.085,1.008-2.099,1.209-3.23,1.363c0.966,0.4,1.712,1.056,2.947,1.05
			c-1.442,0.561-1.776,0.849-3.406,0.496c0.236,0.204,0.416,0.636,0.735,0.865c-1.23,0.1-2.619,0.296-3.794,0.12
			c1.257,2.128,5.679,1.914,8.782,1.841c-0.87,0.504-1.73,1.019-2.663,1.461c0.983-0.08,1.977-0.145,2.958-0.171
			c-0.257,1.639-5.859,1.662-7.351,1.976c0.961,0.261,1.861,0.643,2.931,0.774c-2.222,1.247-2.615,1.409-5.22,1.585
			c0.72,0.27,1.345,0.675,2.179,0.78c-1.793,0.046-3.509,0.703-5.286,0.451c0.878,2.808,4.471,3.024,7.801,2.913
			c-0.514,0.515-1.494,0.681-2.265,1.033c1.15-0.126,2.172,0.255,3.213-0.016c-1.289,1.433-3.955,2.094-5.963,1.759
			c1.089,0.063,2.129,0.689,3.41,0.588c-1.276,1.183-3.985,1.867-5.783,1.638c3.682,1.249,4.794,0.242,8.197-0.46
			c-0.23,1.521-1.186,2.354-2.829,2.366c0.669,0.17,1.567,0.262,2.307,0.419c-1.674,1.13-6.143,0.312-7.968-0.111
			c0.805,0.813,0.607,2.202,1.764,2.702c1.171,0.506-4.506,0.866-3.469,1.319c-1.295,0.734-3.063,0.846-4.449,0.546
			c1.056,0.824,4.421,1.941,4.421,1.941s-0.802,1.641-2.688,1.341c0.907,0.574,3.034,0.264,4.089,0.693
			c-1.066,0.112-0.16,0.167-1.366,0.3c0.979,0.025,1.739,0.956,6.534-0.574c-0.625,0.918-2.723,2.413-3.926,2.536
			c1.089,0.767,3.45,0.729,2.891,0.911c1.908-0.159,1.967,0.708,2.834,1.171c-1.249,2.101-7.494,4.35-9.837,4.494
			c0.669,0.331,1.346,0.742,1.881,1.24c-2.01,0.658-4.324,0.336-6.395,0.518c1.94,2.553,3.651,3.882,6.691,4.433
			c-1.186,0.882-2.694,1.461-4.114,1.897c0.759-0.074,3.542-0.157,4.984-0.237c-0.283,1.173-0.919,2.492-2.079,3.183
			c1.518-0.642,4.726,2.149,5.911,0.967c-0.038,0.967-0.549,1.896-0.987,2.816c1.088-0.746,2.355-1.129,3.468-1.806
			c1.349-0.82,2.375-2.207,3.64-2.935c0.004,0.665,0.103,1.371-0.048,2.041c0.957-0.859,1.951-1.695,2.773-2.644
			c-2.134,3.987-5.686,5.892-10.702,6.985c0.571,0.095,1.271,0.535,1.908,0.634c-2.858,2.064-5.21,3.051-7.102,3.432
			c0.55-1.129,1.001-2.355,1.335-3.725c-2.909,2.59-6.219,2.91-10.342,3.617c1.624-0.846,2.794-2.852,2.963-4.382
			c-2.85,1.384-7.754,3.834-11.144,3.255c-2.391-0.408-4.613-2.813-6.215-4.357c1.379-0.048,2.78-0.036,4.167-0.011
			c-1.373-0.358-2.32-1.234-3.569-1.691c2.919,1.432,7.8-0.523,10.67-1.383c-0.703-0.448-1.537-1.364-2.119-1.819
			c2.38,0.023,5.974-0.419,6.994-2.694c-1.296,0.978-3.529,0.959-5.079,0.536c3.078-2.652,10.317-8.11,8.213-12.375
			c-4.477,2.18-8.48,4.423-13.821,4.035c2.587-0.939,3.247-3.963,5.109-5.717c-3.64,0.979-8.456,0.887-9.378-2.942
			c1.666,0.051,3.188-0.362,4.784-0.57c-1.459-0.643-2.959-1.416-4.112-2.433c5.499-0.473,10.987-4.791,11.824-9.802
			c-3.936,2.27-6.14,3.341-10.965,2.86c1.268-0.531,3.068-1.112,4.155-2.146c-1.8,0.282-3.685-0.588-5.311-1.084
			c2.57-0.375,4.657-1.834,6.895-2.758c-4.301,1.685-6.283,0.748-10.279-1.082c1.532,0.076,2.926-0.453,4.418-0.52
			c-1.384-0.214-2.663-0.739-4.062-0.82c2.073-0.095,4.065-1,5.923-1.667c-2.858,0.877-12.392-2.686-7.698-4.837
			c-0.167-0.19-0.327-0.385-0.488-0.58c1.972-0.188,4.011-0.652,5.82-1.075c1.36-0.318,2.754-0.857,4.135-1.038
			c-3.862,0.405-6.752-1.22-10.13-2.63c1.928-0.144,3.89-0.414,5.828-0.485c-2.505-0.999-5.192-1.72-7.495-3.111
			c0.914-0.401,2.36-0.317,3.358-0.43c0.777-0.088,1.551-0.199,2.327-0.294c-1.757-0.23-3.565-0.326-5.299-0.666
			c0.827-0.077,1.801-0.146,2.599-0.342c-0.565-0.275-1.434-0.59-2.11-0.603c1.487-0.188,3.03-0.313,4.534-0.26
			c-1.121-0.453-2.313-0.706-3.479-1.043c0.009-0.415,0.036-0.802,0.053-1.182c0.566-0.004,1.118-0.038,1.634-0.128
			c-0.295-0.825-1.525-1.709-2.023-2.535c-0.338-0.56-0.596-1.145-0.872-1.723c-0.386-1.15-0.702-2.322-1.042-3.479
			c-0.555-1.888-1.291-3.728-1.804-5.623c0.48,1.299-0.214,6.055-0.982,9.509c-0.811,1.265-1.902,2.373-3.314,3.095
			c0.757,0.147,1.539,0.288,2.306,0.384c-0.034,0.067-0.069,0.146-0.099,0.19c0.032,0.018,0.059,0.053,0.09,0.074
			c-1.032,0.521-2.463,0.715-3.459,1.028c1.194,0.053,2.663,0.031,3.742,0.215c-0.756,0.351-1.679,0.586-2.488,0.895
			c0.809,0.393,1.957,0.49,2.997,0.344c-2.811,1.146-3.577,3.877-8.735,4.132c0.696,0.163,3.281,0.779,4.354,0.118
			c-0.112,1.171-2.765,1.405-4.254,1.583c1.273,0.465,2.254,1.227,3.881,1.22c-1.899,0.652-2.34,0.987-4.486,0.577
			c0.311,0.237,0.548,0.739,0.968,1.005c-1.619,0.116-3.448,0.345-4.997,0.14c1.656,2.473,7.479,2.224,11.566,2.139
			c-1.146,0.586-2.278,1.184-3.508,1.697c1.294-0.092,2.604-0.168,3.896-0.199c-0.339,1.904-7.716,1.931-9.682,2.297
			c1.266,0.303,2.452,0.747,3.861,0.899c-2.927,1.449-3.443,1.636-6.875,1.842c0.949,0.313,1.771,0.784,2.87,0.906
			c-2.362,0.053-4.621,0.816-6.962,0.523c1.156,3.263,5.888,3.514,10.275,3.385c-0.678,0.598-1.968,0.791-2.983,1.2
			c1.515-0.147,2.861,0.297,4.231-0.018c-1.697,1.665-5.208,2.433-7.854,2.044c1.435,0.073,2.804,0.8,4.492,0.683
			c-1.681,1.375-5.249,2.17-7.616,1.903c4.849,1.451,6.314,0.28,10.796-0.536c-0.303,1.768-1.562,2.736-3.725,2.749
			c0.88,0.198,2.063,0.304,3.038,0.486c-2.204,1.313-8.091,0.363-10.495-0.129c1.06,0.945,0.8,2.559,2.323,3.14
			c1.542,0.588-5.934,1.005-4.568,1.533c-1.706,0.853-4.034,0.983-5.86,0.635c1.39,0.958,5.822,2.256,5.822,2.256
			s-1.057,1.907-3.54,1.558c1.195,0.667,3.997,0.307,5.386,0.805c-1.404,0.13-0.211,0.194-1.8,0.349
			c1.29,0.03,2.29,1.111,8.606-0.667c-0.823,1.067-3.586,2.804-5.17,2.946c1.433,0.89,4.543,0.846,3.808,1.059
			c2.513-0.184,2.591,0.823,3.733,1.361c-1.645,2.441-9.87,5.054-12.956,5.222c0.882,0.385,1.773,0.862,2.478,1.441
			c-2.648,0.764-5.695,0.39-8.422,0.601c2.555,2.967,4.808,4.51,8.812,5.151c-1.561,1.025-3.548,1.697-5.418,2.204
			c1-0.086,4.665-0.182,6.564-0.275c-0.373,1.363-1.211,2.895-2.739,3.699c1.999-0.746,6.224,2.497,7.785,1.123
			c-0.05,1.123-0.723,2.204-1.3,3.272c0.617-0.373,1.344-0.228,2.088-0.005c-0.825,0.908-1.843,1.644-3.233,1.911
			c0.752,0.11,1.674,0.622,2.513,0.736c-8.784,5.597-13.962,4.409-16.195,3.245c2.239,3.336,5.993,4.392,9.571,5.193
			c-2.264,0.808-5.245,1.695-7.699,1.6c2.839,1.423,3.887,0.467,7.291,0.927c-0.911,1.748-5.514,4.161-5.514,4.161
			s4.744,2.044,11.537-0.063c2.899-0.992,5.515-1.396,7.885-3.215c0.023,0.222,0.078,0.443,0.114,0.664
			c-2.833,2.522-6.066,4.706-9.721,4.711c1.98,0.293,4.049,0.367,6.103,0.369c-2.008,1.483-5.829,2.215-9.255,2.544
			c2.281-0.012,4.563,0.016,6.842-0.028c-3.503,0.598-5.536,1.837-9.228,2.188c-3.579,0.341-8.082,0.142-10.916-0.989
			c2.576,1.563,5.766,3.102,10.133,3.015c-2.865,1.352-6.158,1.898-9.894,2.432c7.694,1.387,12.156,0.328,19.587-0.864
			c-3.136,0.995-6.415,2.199-9.126,3.428c-3.878-0.892-7.643-1.689-11.198-2.352c-0.223-0.475-0.415-1.338-0.415-1.338
			c0.901,0.631,3.695,0.631,3.695,0.631s-0.674-0.266-1.963-1.506c-1.158-1.113-2.722-3.657-2.722-3.657
			c0.451,0.401,1.261,0.287,1.261,0.287c-0.631-0.803-1.802-4.015-1.802-4.015c0.541,0.287,2.253,0.516,2.253,0.516
			s-0.721-0.172-1.622-1.377c-0.901-1.205-1.442-4.818-1.442-4.818c0.27,0.287,2.343,0.688,2.343,0.688s-0.451-0.229-1.352-1.377
			c-0.901-1.147-2.523-4.761-2.523-4.761c0.451,0.402,1.622,0.516,1.622,0.516s-0.36-0.287-1.262-1.491s-1.892-4.474-1.892-4.474
			c0.451,0.229,1.442,0.229,1.442,0.229s-1.156-1.245-1.812-2.387c-0.858-1.493-1.535-3.577-1.535-3.577
			c-0.541,1.549-2.415,4.758-2.415,4.758c0.541-0.229,1.332-0.886,1.332-0.886s-0.076,0.084-0.706,1.346
			c-0.631,1.262-2.253,3.212-2.253,3.212c0.451-0.057,1.442-0.918,1.442-0.918s-0.09,2.008-0.721,3.327
			c-0.452,0.945-1.037,1.881-1.336,2.341c-0.257-0.228-0.748-0.735-1.482-1.8c-1.13-1.64-3.163-6.807-3.163-6.807
			c0.565,0.574,2.033,0.738,2.033,0.738s-0.452-0.41-1.582-2.132c-1.13-1.722-2.372-6.397-2.372-6.397
			c0.565,0.328,1.807,0.328,1.807,0.328s-0.791-0.246-1.469-1.929c-0.678-1.683-2.146-6.354-2.146-6.354
			c-0.678,2.214-3.615,5.823-3.615,5.823c0.678-0.328,1.92-1.476,1.92-1.476s-0.339,1.066-1.13,2.87
			c-0.791,1.804-2.824,4.592-2.824,4.592c0.565-0.082,1.807-1.312,1.807-1.312s-0.113,2.87-0.904,4.757
			c-0.791,1.886-1.92,3.772-1.92,3.772c0.791-0.082,2.034-0.492,2.034-0.492s-0.27,1.371-0.611,2.816
			c-0.33-0.363-0.791-0.937-1.399-1.859c-1.328-2.017-3.719-8.369-3.719-8.369c0.664,0.706,2.391,0.907,2.391,0.907
			s-0.531-0.504-1.86-2.622c-1.328-2.117-2.789-7.865-2.789-7.865c0.664,0.403,2.125,0.403,2.125,0.403s-0.93-0.302-1.727-2.372
			c-0.797-2.069-2.524-7.812-2.524-7.812c-0.797,2.722-4.251,7.159-4.251,7.159c0.797-0.403,2.258-1.815,2.258-1.815
			s-0.398,1.311-1.328,3.529c-0.93,2.218-3.321,5.647-3.321,5.647c0.664-0.101,2.125-1.613,2.125-1.613s-0.133,3.529-1.063,5.848
			c-0.741,1.848-1.724,3.676-2.097,4.35c-0.15-0.227-0.313-0.478-0.503-0.783c-1.067-1.715-2.241-6.371-2.241-6.371
			c0.534,0.327,1.707,0.327,1.707,0.327s-0.747-0.245-1.387-1.921c-0.64-1.676-2.736-7.482-2.736-7.482
			c-0.369,1.271-1.434,4.242-2.272,6.537c-1.003-1.937-2.024-5.985-2.024-5.985c0.534,0.327,1.707,0.327,1.707,0.327
			s-0.747-0.245-1.387-1.921c-0.64-1.676-2.736-7.482-2.736-7.482c-0.64,2.205-3.382,9.549-3.382,9.549
			c0.64-0.327,1.424-1.207,1.424-1.207c-0.278,3.27-1.067,6.126-1.814,8.005c-0.184,0.463-0.388,0.926-0.59,1.362
			c-0.266-1.266-0.483-2.643-0.606-4.102c0,0,0.84,0.957,1.526,1.313c0,0-2.939-7.985-3.625-10.383c0,0-2.247,6.314-2.933,8.136
			c-0.686,1.823-1.487,2.089-1.487,2.089s1.258,0,1.83-0.355c0,0-1.258,5.063-2.402,6.928c-0.526,0.859-0.902,1.406-1.16,1.758
			c-0.296-0.62-0.611-1.318-0.887-2.021c-0.8-2.043-1.646-5.149-1.944-8.705c0,0,0.84,0.957,1.526,1.313
			c0,0-2.939-7.985-3.625-10.383c0,0-2.247,6.314-2.933,8.136c-0.686,1.823-1.487,2.089-1.487,2.089s1.258,0,1.83-0.355
			c0,0-1.258,5.063-2.402,6.928c-1.144,1.865-1.601,2.309-1.601,2.309s1.487-0.178,2.059-0.799c0,0-1.219,3.31-2.302,5.647
			c-0.406-0.628-0.986-1.575-1.455-2.53c-0.8-1.633-1.646-4.116-1.944-6.959c0,0,0.84,0.765,1.526,1.049
			c0,0-2.939-6.384-3.625-8.301c0,0-2.247,5.047-2.933,6.505c-0.686,1.457-1.487,1.67-1.487,1.67s1.258,0,1.83-0.284
			c0,0-1.159,3.723-2.263,5.341c-0.329-0.3-0.92-0.925-1.777-2.162c-1.392-2.01-3.897-8.341-3.897-8.341
			c0.696,0.703,2.505,0.904,2.505,0.904s-0.557-0.502-1.949-2.613c-1.392-2.11-2.923-7.839-2.923-7.839
			c0.696,0.402,2.227,0.402,2.227,0.402s-0.974-0.301-1.81-2.364c-0.835-2.062-2.645-7.786-2.645-7.786
			c-0.835,2.713-4.454,7.135-4.454,7.135c0.835-0.402,2.366-1.809,2.366-1.809s-0.417,1.306-1.392,3.517
			c-0.974,2.211-3.48,5.628-3.48,5.628c0.696-0.1,2.227-1.608,2.227-1.608s-0.139,3.517-1.114,5.829
			c-0.708,1.68-1.631,3.349-2.086,4.142c-0.158-0.167-0.621-0.699-1.51-2.047c-1.127-1.709-2.367-6.346-2.367-6.346
			c0.563,0.326,1.803,0.326,1.803,0.326s-0.789-0.244-1.465-1.914c-0.676-1.67-2.89-7.453-2.89-7.453
			c-0.676,2.197-3.572,9.512-3.572,9.512c0.676-0.325,1.504-1.202,1.504-1.202c-0.294,3.257-1.127,6.102-1.916,7.974
			c-0.685,1.625-1.622,3.245-1.858,3.646c-0.173-0.405-0.347-0.831-0.504-1.259c-0.669-1.82-0.765-4.589-0.765-4.589
			s1.052,1.187,1.53,1.266c0,0-1.721-2.69-2.391-4.431c-0.669-1.741-0.956-2.769-0.956-2.769s1.052,1.108,1.626,1.424
			c0,0-2.487-3.481-3.06-5.618c0,0-1.243,4.507-1.817,6.13c-0.574,1.624-1.243,1.861-1.243,1.861s1.052,0,1.53-0.316
			c0,0-1.052,4.51-2.008,6.172c-0.956,1.661-1.339,2.057-1.339,2.057s1.243-0.158,1.721-0.712c0,0-1.721,4.985-2.678,6.567
			c-0.015,0.025-0.027,0.043-0.042,0.067c-0.091-0.243-0.172-0.478-0.235-0.696c-0.45-1.564-0.99-4.693-0.99-4.693
			s0.99,0.372,1.621,0.447c0,0-0.9-1.713-1.53-3.426c-0.63-1.713-0.72-4.32-0.72-4.32s0.99,1.117,1.44,1.192
			c0,0-1.62-2.533-2.251-4.171c-0.63-1.639-0.649-1.806-0.649-1.806s0.747,0.58,1.28,0.539c0,0-1.594-4.525-2.134-6.536
			c0,0-0.441,1.549-0.981,3.078c-0.54,1.529-1.789,3.512-1.789,3.512s0.99,0,1.44-0.298c0,0-1.848,6.427-2.749,7.991
			s-1.26,1.937-1.26,1.937s1.171-0.149,1.621-0.67c0,0-0.602,1.743-1.276,3.442c-1.203-2.164-3.183-7.895-3.183-7.895
			c0.592,0.686,2.131,0.881,2.131,0.881s-0.473-0.49-1.657-2.546c-1.184-2.057-2.486-7.639-2.486-7.639
			c0.592,0.392,1.894,0.392,1.894,0.392s-0.829-0.294-1.539-2.304s-2.249-7.588-2.249-7.588c-0.71,2.644-3.788,6.953-3.788,6.953
			c0.71-0.392,2.012-1.763,2.012-1.763s-0.355,1.273-1.184,3.428c-0.829,2.155-2.959,5.484-2.959,5.484
			c0.592-0.098,1.894-1.567,1.894-1.567s-0.118,3.428-0.947,5.68c-0.829,2.253-2.012,4.505-2.012,4.505
			c0.829-0.098,2.131-0.588,2.131-0.588s-0.71,4.113-1.302,6.17c-0.417,1.448-1.418,3.474-1.975,4.549
			c-0.485-1.239-0.902-2.445-0.902-2.445c0.347,0.402,1.248,0.516,1.248,0.516s-0.277-0.287-0.971-1.491
			c-0.693-1.205-1.456-4.474-1.456-4.474c0.347,0.23,1.109,0.23,1.109,0.23s-0.889-1.245-1.394-2.387
			c-0.66-1.493-1.181-3.577-1.181-3.577c-0.416,1.549-1.858,4.758-1.858,4.758c0.416-0.229,1.025-0.886,1.025-0.886
			s-0.058,0.084-0.543,1.346c-0.485,1.262-1.733,3.212-1.733,3.212c0.347-0.057,1.109-0.918,1.109-0.918s-0.069,2.008-0.555,3.327
			c-0.028,0.076-0.059,0.152-0.088,0.228c-0.029-0.043-0.053-0.076-0.082-0.12c-1.127-1.714-3.155-7.111-3.155-7.111
			c0.564,0.6,2.029,0.771,2.029,0.771s-0.451-0.428-1.578-2.228c-1.127-1.799-2.366-6.683-2.366-6.683
			c0.563,0.343,1.803,0.343,1.803,0.343s-0.789-0.257-1.465-2.015c-0.676-1.758-2.89-7.848-2.89-7.848
			c-0.676,2.313-3.573,10.016-3.573,10.016c0.676-0.343,1.504-1.266,1.504-1.266c-0.294,3.43-1.127,6.426-1.916,8.396
			c-0.789,1.971-1.916,3.941-1.916,3.941c0.789-0.086,2.029-0.514,2.029-0.514s-0.676,3.598-1.24,5.398
			c-0.563,1.799-2.254,4.626-2.254,4.626c1.127-0.343,1.995-0.743,1.995-0.743s0.034,1.172-0.53,3.314
			c-0.254,0.966-0.736,1.938-1.19,2.727c-0.743-1.405-1.457-2.993-1.457-2.993c0.451,0.402,1.622,0.516,1.622,0.516
			s-0.361-0.287-1.262-1.491c-0.901-1.205-1.892-4.474-1.892-4.474c0.451,0.229,1.442,0.229,1.442,0.229s-1.156-1.245-1.812-2.387
			c-0.858-1.493-1.535-3.577-1.535-3.577c-0.541,1.549-2.415,4.758-2.415,4.758c0.541-0.229,1.332-0.886,1.332-0.886
			s-0.076,0.084-0.706,1.346c-0.631,1.262-2.253,3.212-2.253,3.212c0.451-0.057,1.442-0.918,1.442-0.918s-0.09,2.008-0.721,3.327
			c-0.631,1.319-1.532,2.639-1.532,2.639c0.631-0.057,1.622-0.344,1.622-0.344s-0.541,2.409-0.991,3.614
			c-0.451,1.204-1.802,3.097-1.802,3.097c0.901-0.229,1.595-0.498,1.595-0.498s0.027,0.784-0.423,2.219s-1.802,2.925-1.802,2.925
			c0.721-0.057,1.892-0.803,1.892-0.803s-0.09,0.287-0.631,1.606c-0.134,0.328-0.375,0.705-0.659,1.086
			c-17,2.538-35.157,5.884-45.685,7.48c17.177-0.707,38.651-1.091,50.788,1.513c18.217,3.908,36.549-3.276,44.037,2.735
			c11.999,9.631,40.23,7.002,40.23,7.002c-2.194-1.813-8.229-2.689-12.213-4.407c-5.514-2.376-8.9-5.33-8.9-5.33s4.858,0,10.121,0
			c1.419,0,3.466,0.198,5.847,0.526c-0.013,0.275-0.021,0.428-0.02,0.428c0.104,0.053,1.493,0.104,2.756-0.019
			c6.086,0.982,13.53,2.584,18.898,4.065c8.502,2.345,23.026-0.485,37.6,3.423c7.164,1.921,28.049,1.807,51.326,2.309
			c-3.117,0.784-7.042,1.083-9.354,2.187c3.803,0.126,6.536,1.053,10.629,0.703c4.004-0.343,7.324-1.471,10.976-2.191
			c-0.031,1.626-5.344,2.968-7.836,3.616c3.568,0.201,6.801-0.305,10.292-0.571c-4.588,0.874-7.69,2.87-12.969,2.785
			c2.016,1.145,5.989,0.562,8.75,0.355c-5.171,1.304-12.316,2.656-17.765,1.258c2.599,1.335,7.251,1.978,10.928,1.906
			c-2.722,1.217-5.674,1.68-8.552,2.63c1.24,0.258,2.789,0.226,4.306,0.188c-5.352,0.892-14.9,2.958-20.417,1.274
			c2.329,0.968,4.739,2.052,7.366,2.658c3.596,0.831,7.805,0.504,11.479,0.605c-3.281,0.72-6.13,0.851-9.605,0.781
			c6.239,1.412,16.171,4.327,21.585,0.271c-0.747,1.533-3.235,1.923-5.2,2.844c2.832,0.148,2.774,1.177,3.076,1.225
			c-4.543,3.302-7.861,0.954-17.693,1.462c0,0,7.981,3.941,10.897,3.893c-6.225,3.204-12.267-0.986-20.931-1.168
			c1.053,0.373,1.707,1.414,2.326,2.502c-1.17-0.118-2.397-0.269-3.644-0.464c-6.478-1.011-15.457-1.811-27.487-2.216
			c-12.03-0.404-31.118,0.188-40.349,1.855c-11.141,2.011-33.93,4.106-44.914,5.792c-19.815,3.041-81.621,5.865-81.621,5.865
			s16.362,1.901,42.384,1.213c13.592-0.359,24.066,0.437,30.621-0.272c-7.517,1.678-13.964,4.519-13.964,4.519
			s10.639,2.912,31.347,0.202c8.23-1.077,48.088-14.126,61.185-16.148c13.097-2.022,35.896,2.022,35.896,2.022
			s-9.2,1.415-18.454,2.187c-9.254,0.771-20.888,6.711-20.888,6.711s12.93-2.022,29.217-2.245c5.596-0.077,10.156-0.651,14.329-1.36
			c5.017,1.331,10.769,2.409,15.928,1.051c-1.766,0.765-3.439,1.694-5.423,1.843c5.719,1.301,13.148,2.986,18.83,0.706
			c-0.359,0.855-1.517,1.535-2.766,1.987c3.945-0.575,8.606-1.019,12.074-2.337c-0.476,0.656-0.981,1.227-1.675,1.422
			c2.318,0.393,4.688,1.683,7.824-0.538l-0.081,2.471c-8.93,0.202-16.318,0.569-16.318,0.569s6.794,3.315,13.087,5.974
			c6.293,2.659,13.696,6.704,13.696,6.704s-17.398-3.236-29.243-4.044c-7.081-0.483-11.45,0.288-16.903,1.022
			c3.069,0.993,27.511,6.883,38.183,7.673c10.924,0.809,25.762-0.202,36.111-0.202c10.348,0,21.372-0.939,21.372-0.939
			s-23.832-3.425-33.16-4.378c-6.337-0.647-9.99-2.003-12.785-3.558l-0.488-4.483c3.404-0.396,8.791-0.599,15.05-1.001
			c12.586-0.809,5.611,0.217,28.376-3.497c22.765-3.714,31.685-4.267,31.685-4.267s-13.136-2.337-28.868-2.567l-0.36-14.619
			c4.381,1.999,8.74,2.566,16.747-0.149c2.183-0.164,4.1-0.642,6.476-0.731c-2.816-1.523-8.308-1.534-11.01-3.331
			c4.504,1.474,10.231,0.893,14.177-0.753c-1.675-0.271-3.62-0.253-5.215-0.662C736.191,411.194,740.787,409.701,742.818,406.103z
			 M608.658,431.402c-0.597,0.19-1.286,0.323-2.128,0.4C607.247,431.67,607.957,431.537,608.658,431.402z M676.076,368.45
			c3.141,0.062,5.666-0.721,7.799-1.744c0.8,0.169,1.654,0.267,2.586,0.247c-2.175,1.163-4.676,1.634-7.513,2.094
			c5.842,1.194,9.23,0.282,14.872-0.744c-2.417,0.869-4.952,1.924-7.027,2.998c3.178-0.262,6.26-0.338,9.114-1.359
			c-2.279,1.785-5.648,3.179-9.624,3.148c1.192,0.378,2.538,0.473,3.873,0.47c-2.639,2.397-11.368,1.484-14.771,0.418
			c1.621,0.76,3.685,1.76,5.792,1.966c-2.395,0.334-5.917,0.507-8.947,0.166c1.416-0.039,2.815-0.175,4.08-0.529
			c-1.564,0.01-3.046-0.141-4.451-0.393c0.397-0.317,0.792-0.653,1.187-1.03c-1.632,0.052-3.266,0.03-4.899,0.041
			c-0.032-0.012-0.065-0.022-0.097-0.034c0.931-0.116,1.73-0.544,2.501-1.023c1.667,0.144,3.365,0.236,5.087,0.361
			c-2.734-1.248-6.072-2.473-9.255-3.484c7.431,1.193,11.893,2.251,19.587,0.865C682.234,370.348,678.941,369.802,676.076,368.45z
			 M683.746,418.894c0.583,0.126,1.168,0.266,1.754,0.429c-1.401-0.532-2.758-1.218-3.884-2.119
			c1.911,0.123,3.797-0.015,5.509-0.624c0.189,0.017,0.377,0.035,0.566,0.049c-0.383,0.572-1.121,1.035-1.913,1.36
			c2.068-0.342,4.392-0.631,6.502-1.149c0.386,0.01,0.77,0.021,1.165,0.032c-0.197-0.027-0.405-0.09-0.619-0.171
			c2.181-0.59,4.075-1.464,5.117-2.958c0.027,1.203-1.119,2.781-2.736,3.296c2.393-0.387,3.102,1.103,4.543-0.215l-0.479,9.005
			c-4.863,0.572-10.722,0.333-14.639-0.149c3.271-0.282,6.477-1.652,8.995-2.693C690.829,423.761,687.119,421.464,683.746,418.894z
			 M688.536,387.644c1.137-0.04,2.317-0.189,3.297-0.273c-2.755,0.788-6.244,1.578-9.513,1.574
			C684.844,388.765,687.118,388.379,688.536,387.644z M687.315,386.915c-3.32-0.976-8.183-1.204-10.767-2.72
			c4.455,1.286,9.975,0.98,14.242-0.233c-1.225,0.513-2.649,0.926-3.568,1.197c2.709,0.173,5.164-0.263,7.815-0.491
			C692.219,385.277,690.127,386.501,687.315,386.915z M691.94,383.405c-0.95-0.113-1.948-0.183-2.936-0.268
			c1.392-0.364,2.747-0.772,4.167-1.09C693.163,382.535,692.662,382.992,691.94,383.405z M679.699,389.061
			c2.005,0.73,4.705,1.083,6.942,1.033c-1.154,0.585-2.364,0.967-3.587,1.333c-2.458,0.44-4.935,0.934-7.401,0.826
			c1.79-0.184,3.354-1.411,4.366-2.735c-9.122,1.762-10.498-0.625-11.509-0.828C668.967,388.651,674.403,389.175,679.699,389.061z
			 M691.32,397.329c-0.448,1.041-1.719,1.472-2.969,1.996c-0.342-0.11-0.695-0.223-1.056-0.339
			C688.806,398.78,690.194,398.285,691.32,397.329z M684.547,405.44c-0.311,0.181-0.621,0.332-0.931,0.461
			c-1.265-0.629-2.319-1.225-3.106-1.698C682.046,404.881,683.628,405.458,684.547,405.44z M676.981,431.93
			c5.932,1.713,13.474,1.038,18.671-0.875c-2.207-0.314-4.768-0.293-6.868-0.769c4.035-0.194,7.504-0.688,10.334-1.589l-0.177,3.317
			c-5.087,0.395-9.257,1.281-13.015,2.285C682.664,433.702,679.144,433.199,676.981,431.93z M666.386,361.657
			c2.968,0.838,6.028,0.132,9.453,0.188c-1.171-0.377-2.181-1.169-3.206-1.617c2.982,0.139,5.845-0.879,8.779-1.075
			c-1.302-0.267-2.556-0.742-3.785-1.147c2.952-1.773,5.279-3.646,7.017-5.975c1.169,0.568,2.427,0.937,3.662,1.251
			c-1.719,0.695-3.983,1.458-5.845,1.376c2.156,1.224,2.952,0.402,5.536,0.797c-0.691,1.505-4.187,3.582-4.187,3.582
			s3.602,1.759,8.76-0.055c2.201-0.854,4.187-1.201,5.987-2.767c0.017,0.191,0.059,0.381,0.086,0.572
			c-2.151,2.17-4.606,4.05-7.381,4.054c1.504,0.252,3.074,0.316,4.634,0.318c-1.524,1.276-4.426,1.906-7.028,2.189
			c1.732-0.01,3.465,0.014,5.195-0.024c-2.659,0.514-4.204,1.581-7.007,1.883c-2.717,0.294-6.137,0.122-8.289-0.851
			c1.079,0.743,2.309,1.47,3.745,1.968c-2.341,0.312-4.962,0.313-7.218,0.099c-1.031-0.098-1.927-0.269-2.768-0.473
			c0.692-0.228,1.335-0.567,1.873-1.049c-1.473,0.306-2.905,0.454-4.209,0.391c-1.091-0.335-2.204-0.671-3.495-0.932
			c-0.066-0.039-0.129-0.081-0.192-0.123c2.134,0.033,4.27,0.013,6.405,0.025c-2.82-0.271-5.892-0.823-8.016-1.834
			c-0.114-0.225-0.216-0.465-0.302-0.721C665.189,361.701,665.788,361.684,666.386,361.657z M644.282,381.942
			c-1.688,1.167-3.844,2.177-6.328,2.842c-1.812-0.444-3.611-0.874-5.387-1.283C636.651,383.213,640.611,383.1,644.282,381.942z
			 M444.666,365.836c0.069,0.073,0.254,0.153,0.491,0.232c-0.019,0.054-0.033,0.097-0.052,0.154
			c-0.066,0.193-0.158,0.401-0.261,0.613C444.728,366.248,444.666,365.836,444.666,365.836z M465.852,357.944
			c0.099,0.137,0.516,0.3,0.924,0.433c-0.019,0.082-0.033,0.155-0.054,0.24c-0.128,0.529-0.312,1.061-0.521,1.572
			C465.976,359.017,465.852,357.944,465.852,357.944z M466.84,362.24c0,0-0.013,0.052-0.046,0.169
			c-0.014-0.033-0.027-0.066-0.04-0.1C466.807,362.267,466.84,362.24,466.84,362.24z M512.581,351.987
			c0.054,0.065,0.171,0.135,0.321,0.206c-0.07,0.159-0.143,0.32-0.22,0.482C512.617,352.254,512.581,351.987,512.581,351.987z
			 M490.292,358.551c-0.381-1.681-0.362-2.606-0.362-2.606s0.324,0.161,0.81,0.358C490.623,357.01,490.472,357.805,490.292,358.551z
			 M480.272,354.298c-0.106-0.536-0.2-1.062-0.281-1.554c0.264-0.11,0.476-0.223,0.55-0.325
			C480.541,352.42,480.446,353.237,480.272,354.298z M488.566,373.374c0,0-0.011,0.061-0.026,0.145
			c-0.06,0.004-0.119,0.006-0.178,0.01C488.437,373.48,488.506,373.429,488.566,373.374z M541.13,360.775
			c-0.102-0.208-0.193-0.409-0.265-0.597c-0.154-0.402-0.316-0.913-0.472-1.445c0.532-0.179,1.008-0.377,1.14-0.548
			C541.534,358.185,541.391,359.341,541.13,360.775z M570.713,345.223c0.055,0.033,0.11,0.065,0.169,0.094
			c-0.024,0.249-0.049,0.496-0.078,0.74c-0.103-0.265-0.19-0.491-0.258-0.667C570.608,345.329,570.664,345.274,570.713,345.223z
			 M593.546,368.715c0.052,0.033,0.112,0.065,0.177,0.097c-0.023,0.076-0.051,0.151-0.077,0.227
			C593.584,368.839,593.546,368.715,593.546,368.715z M594.206,366.698c-0.144-0.306-0.281-0.655-0.411-1.037
			c0.324-0.125,0.523-0.212,0.523-0.212S594.331,365.882,594.206,366.698z M528.946,361.414c-0.111-0.335-0.176-0.536-0.176-0.536
			c0.072,0.043,0.161,0.086,0.258,0.127C529.003,361.133,528.976,361.269,528.946,361.414z M607.118,369.687
			c0.34,0.206,1.049,0.391,1.672,0.524c-0.046,0.174-0.097,0.358-0.16,0.558c-0.15,0.477-0.401,0.956-0.668,1.388
			C607.491,370.854,607.118,369.687,607.118,369.687z M608.48,373.528c-0.053-0.133-0.106-0.267-0.158-0.404
			c0.237-0.131,0.398-0.233,0.398-0.233S608.675,373.033,608.48,373.528z M608.91,369.698c-0.22-0.215-0.464-0.496-0.726-0.854
			c0.52-0.159,0.869-0.293,0.869-0.293S609.064,368.954,608.91,369.698z M607.796,375.018c0.004,0.005,0.01,0.007,0.015,0.012
			c-0.001,0.002-0.003,0.005-0.005,0.007C607.803,375.031,607.796,375.018,607.796,375.018z M608.759,362.488
			c-0.078,0.119-0.129,0.194-0.129,0.194c0.631-0.057,1.622-0.344,1.622-0.344s-0.541,2.409-0.991,3.614
			c-0.287,0.767-0.937,1.81-1.373,2.469c-1.117-1.755-1.786-6.851-1.786-6.851C606.372,361.896,608.08,362.327,608.759,362.488z
			 M595.117,359.772c-0.174,0.716-0.362,1.422-0.538,1.96c-0.253,0.771-0.731,1.737-1.183,2.571
			c-0.668-2.565-1.045-5.571-1.045-5.571C592.628,359.084,594.191,359.532,595.117,359.772z M579.023,354.24
			c0,0-0.247-0.238-0.831-1.1c0.911-0.158,2.07-0.557,2.07-0.557s-0.636,3.378-1.246,5.609c-0.944-2.09-1.914-4.687-1.914-4.687
			C577.636,354.076,579.023,354.24,579.023,354.24z M562.495,347.757c0,0-0.036,0.192-0.096,0.501
			c-0.042-0.142-0.084-0.28-0.124-0.427C562.409,347.786,562.495,347.757,562.495,347.757z M554.559,350.987
			c0,0-0.308,0.837-0.751,1.963c-0.155-0.289-0.394-0.748-0.66-1.289C553.623,351.545,554.235,351.339,554.559,350.987z
			 M553.689,353.252c-0.329,0.831-0.717,1.78-1.107,2.665c-0.356-1.601-0.641-3.151-0.641-3.151S552.911,353.109,553.689,353.252z
			 M540.882,356.009c-0.217,0.44-0.424,0.827-0.606,1.11c-0.083,0.128-0.155,0.233-0.232,0.347c-0.254-0.97-0.437-1.761-0.437-1.761
			S540.233,355.88,540.882,356.009z M530.718,352.038c-0.01,0.014-0.021,0.031-0.031,0.045c-1.144,1.491-1.601,1.846-1.601,1.846
			s1.487-0.142,2.059-0.639c0,0-1.135,2.466-2.188,4.318c-0.912-2.701-1.439-6.679-1.439-6.679
			C527.842,351.319,529.839,351.829,530.718,352.038z M512.595,344.976c-0.154,0.268-0.249,0.426-0.249,0.426
			c0.974-0.1,2.505-0.603,2.505-0.603s-0.692,3.493-1.341,5.712c-1.152-1.979-2.845-6.254-2.845-6.254
			C511.144,344.741,512.266,344.93,512.595,344.976z M501.477,349.795c0,0-0.536-1.02-1.086-2.296
			c0.79-0.101,1.936-0.475,1.936-0.475s-0.676,3.417-1.24,5.126c-0.125,0.38-0.308,0.809-0.514,1.246
			c-0.413-1.735-0.817-4.075-0.817-4.075S500.807,349.716,501.477,349.795z M491.053,354.147c0,0-0.057,0.491-0.164,1.216
			c-0.133-0.27-0.275-0.565-0.416-0.873C490.751,354.373,490.975,354.254,491.053,354.147z M480.072,350.5
			c-0.112,0.244-0.22,0.47-0.322,0.666c-0.083-0.595-0.126-0.971-0.126-0.971C479.694,350.29,479.858,350.395,480.072,350.5z
			 M467.278,354.829c0,0,0.027,1.02-0.359,2.904c-0.094-0.14-0.193-0.293-0.304-0.478c-0.236-0.391-0.536-1.068-0.829-1.79
			C466.66,355.138,467.278,354.829,467.278,354.829z M458.83,353.689c-0.295,0.641-0.535,1.099-0.535,1.099
			c0.485-0.057,1.248-0.344,1.248-0.344s-0.346,1.995-0.67,3.262c-0.517-2.104-0.809-4.421-0.809-4.421
			C458.164,353.412,458.462,353.553,458.83,353.689z M445.893,363.823c0,0-0.063,0.238-0.365,1.148
			c-0.126-0.178-0.261-0.39-0.403-0.629C445.564,364.072,445.893,363.823,445.893,363.823z M662.154,438.667l-0.301-2.767
			c2.78,1.119,5.337,2.06,8.414,2.388c-1.965,0.278-4.029,0.432-6.274,0.399C663.388,438.678,662.773,438.672,662.154,438.667z"/>
		<path d="M378.657,447.627c0,0-22.025-2.022-44.79-5.736c-22.765-3.714-21.23-5.184-33.815-5.993
			c-7.743-0.498-57.038,6.629-57.038,6.629s29.395-0.586,43.091-0.788c9.994-0.148,14.382,2.839,23.101,4.622
			c-62.998-1.944-150.252,16.387-150.252,16.387c77.225-8.164,110.968-11.021,164.101-9.388
			c53.133,1.633,123.313,7.347,123.313,7.347s-54.26-9.063-109.426-12.912C355.856,447.862,378.657,447.627,378.657,447.627z"/>
		<path d="M189.82,427.203c0,0,13.75,2.022,28.188,2.187c14.438,0.165,22.633,0.539,34.479-0.27
			c11.845-0.809,33.626-2.085,33.626-2.085s-12.359,3.091-20.202,6.292c14.521-1.641,30.403-3.121,35.29-3.621
			c9.328-0.952,42.638,4.149,42.638,4.149s-32.543-11.917-42.891-11.917c-10.348,0-18.798-0.141-31.224,2.758
			c-10.667,2.488-21.179,4.327-29.508,2.507c-8.329-1.82-31.059-1.969-31.059-1.969s-5.957,0.149-12.435-0.862
			c-6.478-1.011-18.508-4.044-30.538-4.449c-12.03-0.405-28.688,5.662-28.688,5.662s-9.589-0.462-19.413-0.849
			c6.106-0.842,10.475-2.759,12.641-6.383c-4.371,2.85-15.384,2.67-21.569,1.856c3.292-0.304,6.518-1.78,9.052-2.902
			c-2.816,0.833-6.549-1.642-9.944-4.41c0.587,0.136,1.175,0.287,1.765,0.462c-2.405-0.978-4.701-2.418-5.889-4.716
			c4.667,1.906,8.938,1.927,13.884,2.076c-1.377-0.203-3.233-1.969-4.793-2.924c5.383,1.885,9.239-4.854,9.239-4.854
			c-9.549,0.163-19.016-6.929-19.016-6.929c7.463,1.258,14.344,0.742,15.585-2.307c-1.807,1.964-5.413-2.803-8.161-1.714
			c1.579-0.917,2.837-2.352,3.445-4.006c-2.699,0.238-5.22,1.324-8.001,1.232c2.488-1.142,3.93-4.117,4.53-6.452
			c-3.539,0.408-7.148,1.595-10.733,1.427c1.801-0.198,3.375-1.52,4.394-2.947c-7.773,1.607-9.953,0.014-11.057-0.647
			c0.811,0.022,1.596,0.046,2.35,0.071c23.075,0.782,26.661,2.387,36.896,7.232c10.988,5.201,27.291,5.608,27.291,5.608
			l-16.416-9.713c11.335,1.563,32.59-6.772,39.472-9.117c6.882-2.345,9.108-3.39,21.253,2.864
			c12.145,6.253,26.719,4.999,26.719,4.999s-6.477,6.726-14.979,9.071c-8.501,2.345-23.48,9.925-23.48,9.925
			s37.954-9.714,45.241-8.933c7.287,0.782,17.386,8.668,32.163,12.745c14.585,4.023,56.67,7.424,56.67,7.424
			s-14.685-5.451-37.209-7.692v-2.684c3.601,1.658,8.762,2.777,15.342,0.525c1.794-0.136,3.369-0.532,5.322-0.607
			c-2.314-1.264-6.827-1.273-9.048-2.764c3.701,1.223,8.408,0.741,11.65-0.625c-1.377-0.224-2.975-0.209-4.285-0.549
			c5.337-0.294,9.113-1.532,10.783-4.518c-2.71,1.889-9.539,1.77-13.374,1.23c2.041-0.201,4.041-1.18,5.613-1.923
			c-1.746,0.552-4.061-1.088-6.166-2.922c0.364,0.09,0.729,0.19,1.095,0.306c-1.491-0.648-2.915-1.602-3.651-3.125
			c2.894,1.263,5.542,1.277,8.609,1.376c-0.854-0.134-2.005-1.304-2.971-1.938c1.578,0.59,2.939-0.099,3.941-0.987
			c3.781,1.382,7.51,3.036,11.43,4.5c0.541-0.095,20.189,2.313,20.059,2.273c-15.093-4.536-17.213-10.108-17.213-10.108
			s20.646,2.036,34.816,1.493c2.349-0.09,5.399-0.243,8.918-0.417c-11.938-1.545-20.972-2.861-38.875-7.638
			c-1.25-0.333-2.383-0.629-3.446-0.9c-0.226-0.255-0.608-0.722-1.196-1.556c-1.038-1.475-2.18-5.478-2.18-5.478
			c0.519,0.281,1.661,0.281,1.661,0.281s-1.332-1.524-2.088-2.922c-0.988-1.828-1.768-4.379-1.768-4.379
			c-0.391,1.19-1.386,3.179-2.074,4.496c-0.132-0.214-0.265-0.442-0.384-0.672c-0.464-0.888-0.955-2.238-1.128-3.783
			c0,0,0.487,0.416,0.885,0.57c0,0-1.705-3.471-2.103-4.513c0,0-1.303,2.744-1.701,3.537c-0.039,0.078-0.079,0.144-0.119,0.209
			c-0.956,0.519-2.327,0.823-3.832,0.977c-0.565-1.069-1.13-2.568-1.339-4.288c0,0,0.643,0.504,1.167,0.691
			c0,0-2.248-4.201-2.772-5.463c0,0-1.718,3.322-2.243,4.281c-0.11,0.202-0.224,0.361-0.336,0.496
			c-1.064-0.067-2.132-0.203-3.157-0.385c-1.026-0.182-1.991-0.497-2.956-0.854c1.931,0.191,3.869,0.148,6.341-0.362
			c-2.332-0.382-4.386-0.772-6.174-1.737c2.725,0.061,4.716-1.037,6.323-2.153c-4.831,0.76-11.371-0.58-12.177-0.766
			c-0.041-0.028-0.081-0.058-0.12-0.088c2.035,0.453,2.803,0.453,3.997,0.018c-0.834-0.092-1.717-0.797-2.556-1.59
			c1.385,0.091,2.824-0.167,4.386-0.138c-0.73-0.269-1.361-0.835-2.001-1.154c1.861,0.099,3.647-0.627,5.478-0.768
			c-0.812-0.191-1.595-0.53-2.362-0.819c3.246-2.23,5.323-4.645,6.204-8.768c-1.815,1.849-3.88,2.078-6.453,2.582
			c1.013-0.604,1.743-2.036,1.849-3.129c-1.778,0.988-4.352,0.601-6.468,0.188c-0.84-0.164-1.537-0.975-2.166-1.846
			c1.652-0.075,3.558-0.894,4.833-1.331c-0.439-0.32-0.959-0.974-1.322-1.299c1.485,0.017,3.727-0.299,4.365-1.923
			c-0.809,0.698-2.202,0.685-3.169,0.383c1.921-1.894,3.521-2.885,5.725-7.033c-2.793,1.557-5.892,1.355-9.225,1.078
			c1.614-0.671,2.026-2.83,3.188-4.082c-2.271,0.699-5.277,0.633-5.851-2.101c1.04,0.036,1.989-0.259,2.985-0.407
			c-0.91-0.459-1.846-1.012-2.566-1.738c3.431-0.338,6.856-3.421,7.378-6.999c-2.455,1.621-3.831,2.385-6.841,2.042
			c0.791-0.379,1.914-0.794,2.592-1.532c-1.123,0.201-2.299-0.42-3.314-0.773c1.604-0.268,2.906-1.309,4.302-1.969
			c-2.684,1.203-3.921,0.534-6.414-0.773c0.956,0.054,1.826-0.323,2.757-0.371c-0.864-0.152-1.662-0.528-2.535-0.586
			c1.294-0.068,2.536-0.715,3.696-1.19c-1.461,0.513-5.713-1.101-5.595-2.546c1.807-0.945,6.345-1.23,6.345-1.23
			c-0.11-0.019-0.222-0.041-0.336-0.065c-1.843-0.39-4.123-1.391-5.315-1.951c-0.119-0.133-0.232-0.278-0.336-0.444l4.637-0.468
			c0,0-1.574-0.574-2.53-1.148c-0.956-0.574-2.98-3.272-1.808-3.043c1.171,0.23,1.808,0,1.808,0s-3.568-3.034-3.617-4.629
			c-0.024-1.035-0.037-1.849-0.092-2.239c-0.152,0.294-0.871,3.443-1.678,4.137c-0.63,0.542-1.748,0.666-2.473,0.927
			c0.745,0.037,1.662,0.023,2.335,0.153c-0.472,0.251-1.048,0.418-1.552,0.639c0.504,0.28,1.221,0.35,1.87,0.245
			c-1.754,0.818-2.232,2.768-5.451,2.95c0.434,0.116,2.047,0.556,2.717,0.084c-0.069,0.836-1.725,1.003-2.654,1.13
			c0.794,0.332,1.407,0.876,2.422,0.871c-1.185,0.466-1.46,0.705-2.799,0.412c0.194,0.169,0.342,0.528,0.604,0.717
			c-1.01,0.083-2.152,0.246-3.118,0.1c1.033,1.766,4.667,1.588,7.217,1.527c-0.715,0.419-1.422,0.846-2.189,1.212
			c0.808-0.066,1.625-0.12,2.431-0.142c-0.212,1.36-4.814,1.379-6.041,1.64c0.79,0.216,1.53,0.534,2.409,0.642
			c-1.826,1.035-2.149,1.168-4.29,1.315c0.592,0.223,1.105,0.56,1.791,0.647c-1.474,0.038-2.884,0.583-4.345,0.374
			c0.721,2.329,3.674,2.509,6.411,2.417c-0.423,0.427-1.228,0.565-1.862,0.857c0.945-0.104,1.785,0.212,2.64-0.013
			c-1.059,1.189-3.25,1.738-4.901,1.459c0.895,0.052,1.749,0.572,2.803,0.488c-1.049,0.982-3.275,1.549-4.752,1.359
			c3.026,1.036,3.939,0.2,6.736-0.382c-0.189,1.262-0.974,1.953-2.324,1.963c0.549,0.141,1.288,0.217,1.896,0.347
			c-1.375,0.938-5.048,0.259-6.548-0.092c0.661,0.674,0.499,1.827,1.45,2.242c0.962,0.42-3.703,0.718-2.851,1.094
			c-1.064,0.609-2.517,0.702-3.656,0.453c0.867,0.684,3.633,1.611,3.633,1.611s-0.659,1.361-2.209,1.112
			c0.745,0.476,2.494,0.219,3.361,0.575c-0.876,0.093-0.132,0.138-1.123,0.249c0.805,0.021,1.429,0.793,5.37-0.476
			c-0.514,0.762-2.237,2.002-3.226,2.103c0.894,0.636,2.835,0.604,2.376,0.756c1.568-0.132,1.616,0.588,2.329,0.971
			c-1.026,1.743-6.159,3.609-8.084,3.729c0.55,0.275,1.106,0.615,1.546,1.029c-1.652,0.545-3.553,0.278-5.255,0.429
			c1.594,2.118,3,3.22,5.499,3.678c-0.975,0.732-2.214,1.212-3.381,1.573c0.624-0.061,2.911-0.13,4.096-0.196
			c-0.233,0.973-0.755,2.067-1.709,2.641c1.248-0.533,3.884,1.783,4.858,0.802c-0.031,0.802-0.451,1.573-0.811,2.337
			c0.894-0.619,1.935-0.937,2.85-1.499c0.892-0.548,1.616-1.386,2.405-2.013c-1.312,2.387-2.644,4.142-5.969,4.873
			c0.469,0.079,1.044,0.444,1.568,0.526c-0.379,0.276-0.744,0.524-1.102,0.756c-0.824-1.731-2.156-5.011-2.156-5.011
			c-0.763,1.93-4.068,5.074-4.068,5.074c0.763-0.286,2.161-1.286,2.161-1.286s-0.381,0.929-1.271,2.501
			c-0.169,0.299-0.39,0.63-0.635,0.969c-1.001,0.044-1.797-0.131-2.398-0.372c-0.104-0.161-0.213-0.332-0.333-0.525
			c-1.067-1.715-2.241-6.371-2.241-6.371c0.534,0.327,1.707,0.327,1.707,0.327s-0.747-0.245-1.387-1.921
			c-0.64-1.676-2.736-7.482-2.736-7.482c-0.64,2.205-3.382,9.549-3.382,9.549c0.64-0.327,1.424-1.207,1.424-1.207
			c-0.278,3.27-1.067,6.126-1.814,8.005c-0.505,1.269-1.148,2.524-1.517,3.214c-1.033-1.852-2.121-6.161-2.121-6.161
			c0.534,0.327,1.707,0.327,1.707,0.327s-0.747-0.245-1.387-1.921c-0.64-1.676-2.736-7.482-2.736-7.482
			c-0.64,2.205-3.382,9.549-3.382,9.549c0.64-0.327,1.424-1.207,1.424-1.207c-0.278,3.27-1.067,6.126-1.814,8.005
			c-0.747,1.879-1.814,3.757-1.814,3.757c0.747-0.082,1.921-0.49,1.921-0.49s-0.64,3.431-1.174,5.146
			c-0.533,1.715-2.134,4.411-2.134,4.411c1.067-0.327,1.888-0.709,1.888-0.709s0.032,1.117-0.501,3.159
			c-0.058,0.223-0.134,0.447-0.214,0.67c-0.405-0.529-0.905-1.23-1.145-1.768c-0.437-0.981-0.962-2.944-0.962-2.944
			s0.962,0.234,1.574,0.28c0,0-0.875-1.075-1.487-2.15c-0.612-1.075-1.259-2.709-1.487-4.58c0,0,0.643,0.504,1.167,0.69
			c0,0-2.248-4.201-2.773-5.463c0,0-1.718,3.322-2.243,4.281c-0.525,0.959-1.137,1.099-1.137,1.099s0.962,0,1.399-0.187
			c0,0-0.62,1.714-1.316,2.899c-0.085-0.176-0.162-0.347-0.223-0.507c-0.506-1.328-1.113-3.986-1.113-3.986s1.113,0.316,1.821,0.38
			c0,0-1.012-1.455-1.72-2.91c-0.708-1.455-1.456-3.667-1.72-6.2c0,0,0.743,0.682,1.35,0.935c0,0-2.6-5.688-3.207-7.396
			c0,0-1.987,4.497-2.594,5.795c-0.607,1.298-1.315,1.488-1.315,1.488s1.113,0,1.619-0.253c0,0-1.113,3.606-2.124,4.934
			c-1.012,1.329-1.416,1.645-1.416,1.645s1.315-0.127,1.821-0.569c0,0-1.078,2.358-2.036,4.022
			c-0.359-0.448-0.872-1.121-1.287-1.802c-0.708-1.163-1.456-2.932-1.72-4.956c0,0,0.743,0.545,1.35,0.747
			c0,0-2.6-4.547-3.207-5.912c0,0-1.209,2.187-2.029,3.642c-0.813-1.453-2.015-4.62-2.015-4.62c0.398,0.42,1.432,0.54,1.432,0.54
			s-0.318-0.3-1.114-1.559c-0.796-1.259-1.671-4.676-1.671-4.676c0.398,0.24,1.273,0.24,1.273,0.24s-0.557-0.18-1.034-1.41
			c-0.477-1.23-1.512-4.645-1.512-4.645c-0.477,1.619-2.546,4.257-2.546,4.257c0.477-0.24,1.353-1.079,1.353-1.079
			s-0.239,0.779-0.796,2.098c-0.341,0.809-1.01,1.884-1.478,2.599c-0.1-0.131-0.197-0.259-0.309-0.409
			c-1.26-1.706-2.647-6.338-2.647-6.338c0.63,0.325,2.017,0.325,2.017,0.325s-0.882-0.244-1.639-1.911
			c-0.756-1.667-2.395-6.295-2.395-6.295c-0.756,2.194-4.033,5.769-4.033,5.769c0.756-0.325,2.143-1.463,2.143-1.463
			s-0.378,1.056-1.26,2.844c-0.882,1.788-3.151,4.55-3.151,4.55c0.63-0.081,2.017-1.3,2.017-1.3s-0.126,2.844-1.008,4.713
			c-0.117,0.247-0.241,0.494-0.367,0.737c-1.134-2.105-2.612-5.839-2.612-5.839c0.563,0.569,2.028,0.732,2.028,0.732
			s-0.451-0.407-1.578-2.116c-1.127-1.709-2.367-6.346-2.367-6.346c0.563,0.326,1.803,0.326,1.803,0.326s-0.789-0.244-1.465-1.914
			c-0.676-1.67-2.89-7.453-2.89-7.453c-0.676,2.197-3.572,9.512-3.572,9.512c0.676-0.326,1.504-1.202,1.504-1.202
			c-0.294,3.257-1.127,6.102-1.916,7.974c-0.685,1.624-1.622,3.245-1.858,3.646c-0.173-0.405-0.347-0.831-0.504-1.259
			c-0.669-1.82-0.765-4.589-0.765-4.589s1.052,1.187,1.53,1.266c0,0-1.721-2.69-2.391-4.431c-0.67-1.741-0.956-2.769-0.956-2.769
			s1.052,1.108,1.626,1.424c0,0-2.486-3.481-3.06-5.618c0,0-1.243,4.507-1.817,6.13c-0.574,1.624-1.243,1.861-1.243,1.861
			s1.052,0,1.53-0.316c0,0-1.052,4.51-2.008,6.172c-0.956,1.662-1.339,2.057-1.339,2.057s1.243-0.158,1.721-0.712
			c0,0-1.721,4.985-2.678,6.567c-0.311,0.515-0.566,0.885-0.776,1.165c-0.274-1.569-0.491-3.065-0.491-3.065s0.99,0.443,1.621,0.531
			c0,0-0.9-2.037-1.531-4.075c-0.63-2.037-0.72-5.138-0.72-5.138s0.99,1.329,1.441,1.417c0,0-1.62-3.012-2.251-4.96
			c-0.63-1.949-0.649-2.147-0.649-2.147s0.747,0.69,1.28,0.641c0,0-1.594-5.381-2.134-7.772c0,0-0.44,1.842-0.981,3.66
			c-0.54,1.818-1.789,4.177-1.789,4.177s0.99,0,1.441-0.354c0,0-1.849,7.643-2.749,9.503s-1.26,2.303-1.26,2.303
			s1.17-0.177,1.621-0.797c0,0-0.774,2.666-1.55,4.898c-0.23-0.315-0.999-1.397-1.47-2.41c-0.73-1.57-1.307-3.761-1.307-3.761
			c-0.46,1.628-2.056,5.002-2.056,5.002c0.46-0.241,1.134-0.931,1.134-0.931s-0.064,0.088-0.602,1.415
			c-0.309,0.765-0.895,1.76-1.339,2.474c-0.83-1.933-1.518-4.304-1.518-4.304c0.592,0.315,1.894,0.315,1.894,0.315
			s-0.829-0.237-1.539-1.855c-0.71-1.618-2.249-6.109-2.249-6.109c-0.71,2.129-3.788,5.598-3.788,5.598
			c0.71-0.315,2.012-1.419,2.012-1.419s-0.355,1.025-1.184,2.76c-0.829,1.735-2.959,4.415-2.959,4.415
			c0.592-0.079,1.894-1.262,1.894-1.262s-0.118,2.76-0.947,4.573c-0.828,1.814-2.012,3.627-2.012,3.627
			c0.829-0.079,2.131-0.473,2.131-0.473s-0.71,3.312-1.302,4.968c-0.15,0.419-0.376,0.898-0.629,1.381
			c-0.115-0.178-0.241-0.377-0.39-0.622c-0.767-1.266-1.611-4.704-1.611-4.704c0.384,0.241,1.228,0.241,1.228,0.241
			s-0.984-1.309-1.543-2.509c-0.73-1.57-1.307-3.761-1.307-3.761c-0.46,1.628-2.056,5.002-2.056,5.002
			c0.46-0.241,1.134-0.931,1.134-0.931s-0.064,0.088-0.601,1.415c-0.537,1.327-1.918,3.377-1.918,3.377
			c0.384-0.06,1.228-0.965,1.228-0.965s-0.077,2.111-0.614,3.498c-0.537,1.387-1.304,2.774-1.304,2.774
			c0.537-0.06,1.381-0.362,1.381-0.362s-0.335,1.844-0.672,3.172c-0.215-0.197-0.663-0.676-1.356-1.76
			c-1.005-1.572-2.814-6.524-2.814-6.524c0.503,0.55,1.809,0.707,1.809,0.707s-0.402-0.393-1.407-2.043
			c-1.005-1.651-2.11-6.13-2.11-6.13c0.502,0.314,1.608,0.314,1.608,0.314s-0.704-0.236-1.307-1.849
			c-0.603-1.613-2.577-7.2-2.577-7.2c-0.603,2.122-3.186,9.188-3.186,9.188c0.603-0.314,1.341-1.161,1.341-1.161
			c-0.262,3.146-1.005,5.895-1.708,7.702c-0.704,1.808-1.709,3.615-1.709,3.615c0.704-0.079,1.809-0.472,1.809-0.472
			s-0.602,3.294-1.104,4.947c-0.74-1.432-1.549-3.376-1.549-3.376c0.398,0.383,1.434,0.493,1.434,0.493s-0.319-0.274-1.116-1.423
			c-0.797-1.149-1.674-4.269-1.674-4.269c0.398,0.219,1.275,0.219,1.275,0.219s-1.022-1.188-1.602-2.277
			c-0.759-1.425-1.357-3.413-1.357-3.413c-0.478,1.478-2.136,4.539-2.136,4.539c0.478-0.219,1.178-0.845,1.178-0.845
			s-0.067,0.08-0.625,1.284c-0.558,1.204-1.992,3.065-1.992,3.065c0.399-0.055,1.275-0.876,1.275-0.876s-0.08,1.915-0.637,3.174
			c-0.247,0.557-0.538,1.108-0.789,1.556c-0.813-1.439-2.032-4.651-2.032-4.651c0.398,0.42,1.432,0.54,1.432,0.54
			s-0.318-0.3-1.114-1.559c-0.796-1.259-1.671-4.677-1.671-4.677c0.398,0.24,1.273,0.24,1.273,0.24s-0.557-0.18-1.034-1.41
			c-0.477-1.23-1.512-4.645-1.512-4.645c-0.477,1.619-2.546,4.257-2.546,4.257c0.477-0.24,1.352-1.079,1.352-1.079
			s-0.239,0.78-0.796,2.099c-0.557,1.319-1.989,3.358-1.989,3.358c0.398-0.06,1.273-0.959,1.273-0.959s-0.08,2.099-0.637,3.477
			c-0.557,1.379-1.353,2.758-1.353,2.758c0.557-0.06,1.432-0.36,1.432-0.36s-0.477,2.518-0.875,3.777
			c-0.004,0.012-0.01,0.026-0.014,0.039c-0.107-0.154-0.222-0.323-0.35-0.517c-0.906-1.372-1.902-5.097-1.902-5.097
			c0.453,0.261,1.449,0.261,1.449,0.261s-1.162-1.418-1.821-2.719c-0.862-1.701-1.543-4.076-1.543-4.076
			c-0.543,1.764-2.428,5.421-2.428,5.421c0.544-0.261,1.339-1.009,1.339-1.009s-0.076,0.096-0.71,1.534
			c-0.634,1.438-2.265,3.66-2.265,3.66c0.453-0.065,1.449-1.046,1.449-1.046s-0.091,2.287-0.725,3.79
			c-0.634,1.503-1.54,3.006-1.54,3.006c0.634-0.065,1.63-0.392,1.63-0.392s-0.308,1.557-0.654,2.913
			c-5.224,0.648-11.848,0.625-14.35-1.522c1.769,0.004,3.554-0.115,5.133-0.588c-1.574,0.011-3.066-0.152-4.48-0.424
			c0.399-0.341,0.797-0.703,1.194-1.11c-1.642,0.056-3.286,0.032-4.93,0.045c-0.032-0.013-0.065-0.024-0.098-0.037
			c0.937-0.125,1.741-0.586,2.517-1.103c1.677,0.155,3.387,0.254,5.12,0.389c-2.751-1.345-6.11-2.665-9.314-3.754
			c7.478,1.285,11.968,2.426,19.712,0.932c-3.761-0.576-7.075-1.165-9.958-2.621c4.395,0.093,7.606-1.565,10.198-3.249
			c-2.852,1.218-7.384,1.433-10.986,1.066c-1.038-0.106-1.939-0.29-2.785-0.509c0.697-0.245,1.343-0.611,1.885-1.13
			c-1.482,0.33-2.923,0.49-4.236,0.421c-1.098-0.361-2.218-0.723-3.517-1.004c-0.066-0.042-0.13-0.087-0.193-0.132
			c2.147,0.035,4.297,0.015,6.446,0.027c-2.838-0.292-5.93-0.887-8.067-1.976c-0.115-0.243-0.218-0.501-0.305-0.777
			c0.604-0.009,1.208-0.026,1.809-0.056c2.987,0.903,6.067,0.142,9.513,0.202c-1.178-0.406-2.195-1.259-3.227-1.742
			c3.001,0.15,5.882-0.947,8.835-1.159c-1.31-0.288-2.572-0.8-3.809-1.236c5.235-3.366,8.585-7.009,10.005-13.231
			c-2.927,2.79-6.258,3.135-10.408,3.897c1.634-0.912,2.812-3.073,2.981-4.722c-2.868,1.492-7.803,4.131-11.215,3.507
			c-2.406-0.44-4.642-3.031-6.255-4.694c1.387-0.051,2.798-0.039,4.193-0.012c-1.381-0.386-2.335-1.33-3.592-1.822
			c2.938,1.544,7.85-0.564,10.738-1.49c-0.708-0.482-1.547-1.47-2.132-1.96c2.395,0.025,6.011-0.451,7.039-2.902
			c-1.305,1.054-3.551,1.033-5.112,0.578c3.098-2.858,10.383-8.738,8.265-13.334c-4.505,2.349-8.534,4.765-13.909,4.348
			c2.603-1.012,3.267-4.27,5.141-6.16c-3.663,1.055-8.51,0.955-9.437-3.17c1.677,0.054,3.208-0.39,4.815-0.614
			c-1.468-0.693-2.978-1.526-4.138-2.622c5.534-0.51,11.057-5.163,11.899-10.561c-3.961,2.446-6.179,3.6-11.034,3.082
			c1.276-0.572,3.088-1.198,4.181-2.312c-1.811,0.304-3.709-0.633-5.345-1.167c2.587-0.404,4.687-1.976,6.939-2.972
			c-4.328,1.815-6.323,0.806-10.344-1.166c1.542,0.081,2.945-0.488,4.446-0.561c-1.392-0.23-2.68-0.797-4.088-0.884
			c2.086-0.102,4.091-1.078,5.961-1.796c-2.876,0.945-12.47-2.894-7.747-5.211c-0.168-0.204-0.329-0.415-0.491-0.625
			c1.985-0.202,4.037-0.702,5.857-1.158c1.369-0.343,2.772-0.924,4.162-1.119c-3.887,0.436-6.795-1.315-10.195-2.834
			c1.941-0.155,3.915-0.445,5.865-0.522c-2.521-1.077-5.225-1.854-7.542-3.352c0.92-0.432,2.375-0.342,3.379-0.464
			c0.782-0.095,1.561-0.215,2.341-0.317c-1.768-0.248-3.587-0.351-5.333-0.718c0.832-0.083,1.812-0.158,2.615-0.369
			c-0.568-0.297-1.443-0.635-2.124-0.65c1.497-0.203,3.049-0.337,4.563-0.28c-1.128-0.489-2.328-0.761-3.501-1.124
			c0.009-0.447,0.036-0.864,0.054-1.273c0.57-0.004,1.125-0.04,1.645-0.138c-0.297-0.889-1.534-1.842-2.036-2.732
			c-0.34-0.603-0.6-1.233-0.878-1.857c-0.389-1.239-0.707-2.502-1.049-3.748c-0.559-2.034-1.299-4.016-1.816-6.059
			c0.483,1.4-0.216,6.524-0.989,10.245c-0.816,1.363-1.914,2.557-3.335,3.335c0.762,0.158,1.548,0.31,2.321,0.413
			c-0.034,0.072-0.069,0.158-0.1,0.205c0.032,0.02,0.06,0.057,0.091,0.08c-1.039,0.562-2.479,0.771-3.481,1.108
			c1.201,0.057,2.68,0.034,3.766,0.232c-0.761,0.378-1.69,0.631-2.503,0.965c0.814,0.423,1.969,0.528,3.016,0.37
			c-2.829,1.235-3.599,4.177-8.79,4.452c0.7,0.175,3.302,0.839,4.382,0.127c-0.113,1.262-2.782,1.514-4.281,1.706
			c1.281,0.501,2.269,1.322,3.906,1.315c-1.912,0.703-2.355,1.063-4.515,0.621c0.313,0.255,0.551,0.797,0.974,1.083
			c-1.629,0.125-3.47,0.371-5.028,0.151c1.666,2.664,7.526,2.397,11.64,2.304c-1.153,0.632-2.293,1.276-3.53,1.829
			c1.303-0.1,2.621-0.181,3.92-0.214c-0.341,2.052-7.765,2.081-9.744,2.475c1.274,0.326,2.468,0.805,3.885,0.969
			c-2.945,1.562-3.465,1.763-6.919,1.985c0.955,0.337,1.783,0.845,2.888,0.976c-2.377,0.057-4.651,0.879-7.007,0.564
			c1.163,3.516,5.925,3.786,10.34,3.647c-0.682,0.644-1.98,0.852-3.002,1.293c1.524-0.158,2.879,0.32,4.258-0.02
			c-1.708,1.794-5.241,2.622-7.903,2.202c1.444,0.079,2.821,0.862,4.521,0.736c-1.692,1.482-5.282,2.338-7.665,2.051
			c4.88,1.564,6.354,0.302,10.864-0.577c-0.305,1.904-1.571,2.948-3.749,2.962c0.886,0.213,2.076,0.327,3.058,0.524
			c-2.218,1.415-8.142,0.391-10.561-0.138c1.067,1.018,0.805,2.758,2.338,3.383c1.552,0.633-5.972,1.083-4.597,1.651
			c-1.717,0.919-4.06,1.059-5.897,0.684c1.399,1.032,5.859,2.431,5.859,2.431s-1.064,2.055-3.562,1.679
			c1.202,0.718,4.022,0.331,5.42,0.868c-1.413,0.14-0.213,0.209-1.811,0.376c1.298,0.032,2.305,1.197,8.66-0.719
			c-0.828,1.149-3.608,3.022-5.203,3.174c1.443,0.959,4.572,0.912,3.832,1.141c2.529-0.199,2.607,0.887,3.757,1.466
			c-1.655,2.63-9.932,5.446-13.038,5.627c0.887,0.415,1.785,0.929,2.494,1.553c-2.664,0.823-5.731,0.42-8.476,0.648
			c2.572,3.197,4.839,4.86,8.868,5.55c-1.571,1.104-3.57,1.828-5.452,2.374c1.006-0.092,4.695-0.196,6.605-0.296
			c-0.375,1.469-1.218,3.12-2.756,3.985c2.012-0.804,6.264,2.691,7.834,1.21c-0.05,1.21-0.728,2.374-1.308,3.526
			c1.442-0.934,3.121-1.414,4.596-2.261c1.787-1.027,3.148-2.763,4.824-3.674c0.005,0.833,0.136,1.717-0.064,2.555
			c1.269-1.075,2.586-2.122,3.676-3.31c-2.829,4.991-7.536,7.377-14.184,8.745c0.757,0.118,1.685,0.67,2.528,0.793
			c-8.84,6.03-14.051,4.751-16.298,3.496c2.254,3.594,6.031,4.733,9.632,5.596c-2.279,0.871-5.279,1.826-7.748,1.724
			c2.857,1.533,3.912,0.504,7.337,0.998c-0.917,1.884-5.549,4.484-5.549,4.484s4.774,2.202,11.61-0.068
			c2.918-1.069,5.55-1.505,7.935-3.464c0.023,0.239,0.078,0.477,0.114,0.716c-2.851,2.717-6.104,5.071-9.783,5.076
			c1.993,0.315,4.074,0.395,6.142,0.398c-2.021,1.597-5.866,2.386-9.314,2.741c2.295-0.013,4.592,0.017,6.886-0.031
			c-3.525,0.644-5.572,1.979-9.287,2.358c-3.602,0.367-8.134,0.152-10.986-1.065c2.592,1.684,5.803,3.342,10.198,3.249
			c-2.883,1.456-6.197,2.045-9.957,2.621c7.743,1.494,12.233,0.353,19.711-0.931c-3.204,1.088-6.563,2.408-9.314,3.753
			c4.213-0.328,8.298-0.423,12.079-1.701c-1.814,1.342-4.156,2.498-6.873,3.207c-5.777,0.478-12.987,1.251-19.668,2.022
			c-0.227-0.058-0.457-0.116-0.657-0.176c0.145,0.064,0.3,0.133,0.45,0.199c-3.63,0.419-7.098,0.836-10.085,1.203
			c-0.354-0.159-0.689-0.327-0.979-0.516c0.122,0.203,0.256,0.397,0.393,0.588c-5.385,0.664-9.072,1.147-9.072,1.147
			s3.861-0.066,9.93-0.146c2.665,2.68,7.31,3.873,13.496,4.192c-1.792,0.435-3.978,0.415-5.861,0.702
			c4.434,1.747,10.871,2.364,15.933,0.799c-3.037,1.908-9.21,1.919-12.374,3.536c3.827,0.136,6.578,1.135,10.697,0.757
			c4.03-0.37,7.371-1.585,11.045-2.361c-0.031,1.752-5.378,3.198-7.885,3.897c3.59,0.216,6.844-0.329,10.358-0.615
			c-4.617,0.942-7.739,3.092-13.051,3.001c2.029,1.233,6.027,0.606,8.806,0.382c-5.204,1.405-12.395,2.862-17.878,1.355
			c2.616,1.438,7.297,2.131,10.997,2.054c-2.739,1.311-5.71,1.81-8.606,2.834c1.248,0.277,2.807,0.243,4.333,0.202
			c-5.386,0.961-14.995,3.187-20.547,1.373c2.344,1.043,4.77,2.211,7.412,2.864c3.619,0.896,7.855,0.543,11.552,0.652
			c-3.302,0.776-6.169,0.917-9.666,0.841c6.279,1.522,16.273,4.663,21.722,0.293c-0.752,1.651-3.256,2.072-5.233,3.064
			c2.85,0.159,2.792,1.268,3.096,1.32c-4.572,3.558-7.911,1.028-17.806,1.576c0,0,8.032,4.247,10.967,4.194
			c-6.264,3.452-12.345-1.063-21.064-1.258c2.593,0.984,2.787,6.273,5.926,6.082c-4.262,3.225-4.288,4.793-11.195,4.512
			c5.321,1.582,11.639,3.072,17.255,1.488c-0.193,0.089-0.385,0.182-0.576,0.274c-6.848,0.909-11.656,1.817-11.656,1.817
			s2.493-0.081,6.816-0.095c5.75,1.4,13.204,3.202,18.908,0.75c-0.361,0.922-1.527,1.654-2.784,2.141
			c3.592-0.56,7.773-1.007,11.123-2.137c0.964,0.055,1.943,0.115,2.932,0.178c-0.465,0.327-0.988,0.598-1.56,0.77
			c0.989-0.151,1.901-0.393,2.756-0.693c1.377,0.092,2.774,0.19,4.191,0.299c0.201,0.015,0.396,0.027,0.596,0.042v14.876
			c-1.408-0.067-2.838-0.092-4.298-0.061c-10.526,0.229-43.705,10.279-43.705,10.279s23.738-2.743,40.842-3.183
			c-20.384,3.945-31.549,8.864-31.549,8.864s37.002-9.142,50.516-7.114c13.514,2.028,38.937,1.432,38.937,1.432
			s-19.346-2.271-27.354-5.14c-4.841-1.734-10.103-3.329-15.831-4.272v-15.277c0.816,0.028,1.618,0.049,2.405,0.066
			c3.154,1.082,6.901,1.836,11.215,1.767c-3.095,1.077-5.116,1.967-5.116,1.967l40.533-5.056c0,0,9.069-3.64,22.166-5.662
			C167.022,423.159,189.82,427.203,189.82,427.203z M147.193,369.912c-0.018,0.071-0.045,0.141-0.066,0.212
			c-0.027-0.043-0.052-0.075-0.079-0.12c-0.276-0.454-0.521-1.161-0.733-1.942c0.705-0.231,1.238-0.482,1.238-0.482
			S147.577,368.405,147.193,369.912z M146.344,371.183c0.079,0.051,0.182,0.101,0.299,0.15c-0.053,0.107-0.105,0.212-0.158,0.313
			C146.397,371.361,146.344,371.183,146.344,371.183z M155.25,361.566c-0.092-0.223-0.181-0.443-0.266-0.657
			c0.202-0.074,0.322-0.122,0.322-0.122S155.314,361.055,155.25,361.566z M229.132,360.651c-0.091-0.148-0.17-0.291-0.234-0.425
			c-0.136-0.286-0.279-0.651-0.417-1.03c0.471-0.127,0.891-0.268,1.008-0.39C229.49,358.806,229.363,359.629,229.132,360.651z
			 M248.495,370.485c-0.106-0.149-0.205-0.302-0.298-0.46c0.329-0.214,0.564-0.391,0.564-0.391S248.711,369.823,248.495,370.485z
			 M248.205,371.357c-0.039,0.117-0.084,0.248-0.129,0.38c-0.21-0.446-0.257-0.569-0.257-0.569S247.975,371.25,248.205,371.357z
			 M304.82,361.683c0.12-0.012,0.238-0.034,0.357-0.051c-0.028,0.032-0.052,0.057-0.079,0.087
			C305.006,361.707,304.909,361.696,304.82,361.683z M316.096,361.413c0,0-0.73,2.201-1.393,3.011
			c-0.663,0.811-0.929,1.004-0.929,1.004s0.862-0.077,1.194-0.348c0,0-0.845,1.721-1.509,2.727
			c-0.197-0.299-0.375-0.597-0.491-0.857c-0.437-0.981-0.962-2.944-0.962-2.944s0.962,0.234,1.574,0.28c0,0-0.317-0.391-0.702-0.934
			c1.088-0.448,1.982-1.04,2.65-1.814C315.732,361.517,315.951,361.48,316.096,361.413z M320.238,366.481
			c0.149,0.034,0.324,0.07,0.499,0.099c-0.105,0.217-0.233,0.484-0.397,0.833c-0.035,0.075-0.084,0.159-0.124,0.237
			c-0.111-0.38-0.207-0.743-0.269-0.98C320.044,366.611,320.141,366.548,320.238,366.481z M269.703,399.251
			c0.336-0.043,0.661-0.101,0.959-0.19c-0.146,0.072-0.381,0.172-0.677,0.29C269.891,399.317,269.797,399.284,269.703,399.251z
			 M313.17,369.069c0,0,0.225,0.073,0.578,0.169c-0.067,0.33-0.17,0.784-0.304,1.244C313.151,369.565,313.17,369.069,313.17,369.069
			z M270.263,352.304c-0.15-0.328-0.3-0.668-0.447-1.013c0.245,0.127,0.472,0.223,0.683,0.29
			C270.43,351.824,270.352,352.067,270.263,352.304z M264.314,389.427c-0.223,0.041-0.436,0.063-0.638,0.067
			C263.888,389.472,264.098,389.45,264.314,389.427z M270.615,351.127c-0.29,0.035-0.573,0.052-0.848,0.049
			c-0.178-0.418-0.351-0.834-0.513-1.231c0.693-0.279,1.692-1.042,1.692-1.042S270.892,349.946,270.615,351.127z M221.83,350.98
			c-0.024-0.137-0.046-0.267-0.066-0.39c0.094-0.021,0.182-0.045,0.255-0.075C222.019,350.515,221.95,350.694,221.83,350.98z
			 M204.034,344.014c0,0-0.271,1.219-0.622,2.564c-0.191-0.869-0.337-1.696-0.433-2.291
			C203.553,344.154,204.034,344.014,204.034,344.014z M180.456,353.385c0,0-0.054,0.192-0.142,0.496
			c-0.018-0.141-0.033-0.272-0.046-0.394C180.335,353.453,180.405,353.42,180.456,353.385z M170.794,348.21
			c-0.009-0.022-0.018-0.046-0.027-0.068c0.009-0.012,0.03-0.025,0.037-0.036C170.805,348.106,170.8,348.149,170.794,348.21z
			 M146.96,373.141c-0.073-0.224-0.142-0.436-0.206-0.637c0.295-0.189,0.516-0.361,0.516-0.361S147.217,372.348,146.96,373.141z
			 M120.628,377.516c-0.026,0.043-0.059,0.092-0.091,0.139c-0.057-0.005-0.112-0.009-0.168-0.013
			C120.521,377.57,120.628,377.516,120.628,377.516z M123.993,377.955c0.142-0.057,0.253-0.106,0.329-0.14
			c-0.038,0.053-0.077,0.105-0.119,0.159C124.133,377.968,124.063,377.962,123.993,377.955z M263.567,389.505
			c3.893,1.009,9.658,2.725,13.589,0.589c-0.901,2.792-9.114,2.066-8.926,2.1c0,0,3.64,3.693,8.238,2.313
			c-2.455,1.985-12.629,0.92-17.496,0.609c-5.324-2.614-8.115-5.068-8.115-5.068S255.856,390.302,263.567,389.505z M321.154,365.765
			c0,0-0.045,0.058-0.294,0.564c-0.043-0.061-0.09-0.13-0.141-0.205C320.971,365.925,321.154,365.765,321.154,365.765z
			 M306.687,358.834c-0.235,0.57-0.57,1.323-0.929,1.952c-0.903,0.1-1.855,0.164-2.788,0.172
			C304.134,360.461,305.458,359.73,306.687,358.834z M270.121,348.226c0.079,0.06,0.155,0.129,0.236,0.185
			c-0.473,0.566-0.912,1.056-1.179,1.348c-0.508-1.256-0.881-2.254-0.881-2.254C268.749,347.989,269.806,348.178,270.121,348.226z
			 M260.402,350.282c0,0-0.152,0.815-0.369,1.847c-0.216-0.286-0.543-0.753-0.988-1.457
			C259.706,350.523,260.402,350.282,260.402,350.282z M259.956,352.487c-0.138,0.643-0.296,1.337-0.456,1.961
			c-0.582-1.422-1.03-2.621-1.03-2.621C258.813,352.194,259.503,352.392,259.956,352.487z M247.496,367.631
			c0,0,0.284,0.092,0.72,0.207c-0.156,0.361-0.322,0.711-0.497,1.034C247.482,368.069,247.496,367.631,247.496,367.631z
			 M228.913,357.256c-0.192,0.313-0.375,0.589-0.536,0.791c-0.073,0.091-0.137,0.166-0.205,0.247
			c-0.225-0.69-0.386-1.254-0.386-1.254S228.339,357.164,228.913,357.256z M221.646,349.633c-0.007,0.011-0.014,0.021-0.021,0.032
			c-0.004-0.032-0.007-0.052-0.007-0.052C221.624,349.618,221.639,349.626,221.646,349.633z M214.935,340.079
			c0,0-0.019,0.445-0.09,1.05c-0.13-0.157-0.277-0.339-0.445-0.554C214.69,340.329,214.935,340.079,214.935,340.079z
			 M214.747,341.833c-0.086,0.52-0.215,1.074-0.393,1.562c-0.575-1.202-0.993-2.144-0.993-2.144
			C213.68,341.539,214.255,341.722,214.747,341.833z M191.74,341.2c0,0-0.536-1.02-1.086-2.296c0.79-0.101,1.936-0.475,1.936-0.475
			s-0.676,3.417-1.24,5.126c-0.125,0.38-0.308,0.809-0.514,1.246c-0.413-1.735-0.817-4.075-0.817-4.075
			S191.071,341.121,191.74,341.2z M181.317,345.552c0,0-0.282,2.443-0.779,4.479c-0.221-0.608-0.422-1.221-0.55-1.748
			c-0.133-0.549-0.273-1.261-0.406-1.99C180.248,346.096,181.141,345.795,181.317,345.552z M170.751,344.685
			c-0.209,0.597-0.416,1.156-0.608,1.623c-0.304-1.01-0.513-1.861-0.513-1.861C169.933,344.637,170.516,344.677,170.751,344.685z
			 M165.794,346.316c0,0-0.019,0.52-0.104,1.211c-0.124-0.231-0.247-0.485-0.368-0.75
			C165.582,346.543,165.794,346.316,165.794,346.316z M154.595,359.24c-0.051,0.09-0.102,0.179-0.154,0.267
			c-0.117-0.311-0.189-0.51-0.189-0.51C154.34,359.094,154.462,359.173,154.595,359.24z M147.881,364.303
			c-0.051,0.197-0.101,0.381-0.151,0.544c-0.322,1.063-1.177,2.622-1.446,3.099c-0.538-2.041-0.844-4.544-0.844-4.544
			C145.694,363.733,147.355,364.171,147.881,364.303z M127.744,362.039c0,0-0.041,0.193-0.104,0.48
			c-0.086-0.107-0.177-0.227-0.28-0.37C127.583,362.088,127.744,362.039,127.744,362.039z M127.536,362.983
			c-0.176,0.769-0.435,1.83-0.668,2.504c-0.019,0.055-0.048,0.118-0.071,0.176c-0.384-1.503-0.601-3.212-0.601-3.212
			C126.333,362.623,126.996,362.834,127.536,362.983z M117.732,363.452c-0.048,0.107-0.096,0.212-0.147,0.32
			c-0.142-0.347-0.23-0.569-0.23-0.569C117.452,363.301,117.586,363.382,117.732,363.452z M109.693,369.421
			c-0.013,0.04-0.025,0.083-0.038,0.121c-0.049,0.147-0.112,0.306-0.178,0.467c-0.684-0.061-1.335-0.131-1.929-0.21
			C108.27,369.733,108.988,369.598,109.693,369.421z M108.472,376.371c-0.084,0.164-0.163,0.319-0.25,0.471
			c-1.508-0.077-2.981-0.142-4.429-0.201c-1.056-0.295-2.013-0.654-2.773-1.131C103.325,376.222,105.915,376.464,108.472,376.371z
			 M35.409,380.567c3.689-0.045,7.942-0.09,12.499-0.129c0.371,0.067,0.744,0.122,1.118,0.156
			C45.376,381.076,39.746,381.293,35.409,380.567z"/>
		<path d="M393.463,415.272c26.762,2.668,38.086-2.822,55.858-2.03c17.771,0.792,41.872,0.506,41.872,0.506
			s-30.782-6.953-49.179-3.645S393.463,415.272,393.463,415.272z"/>
	</g>
</g>
</svg>
